G04*
G04 #@! TF.GenerationSoftware,Altium Limited,Altium Designer,19.0.10 (269)*
G04*
G04 Layer_Color=32896*
%FSLAX44Y44*%
%MOMM*%
G71*
G01*
G75*
%ADD10C,0.2540*%
%ADD141C,0.3048*%
D10*
X429006Y25905D02*
Y17441D01*
X427313Y15748D01*
X423928D01*
X422235Y17441D01*
Y25905D01*
X418849Y15748D02*
Y22519D01*
X413771D01*
X412078Y20826D01*
Y15748D01*
X408693D02*
X405307D01*
X407000D01*
Y22519D01*
X408693D01*
X400229D02*
X396843Y15748D01*
X393457Y22519D01*
X384994Y15748D02*
X388379D01*
X390072Y17441D01*
Y20826D01*
X388379Y22519D01*
X384994D01*
X383301Y20826D01*
Y19134D01*
X390072D01*
X379915Y22519D02*
Y15748D01*
Y19134D01*
X378222Y20826D01*
X376530Y22519D01*
X374837D01*
X369758Y15748D02*
X364680D01*
X362987Y17441D01*
X364680Y19134D01*
X368066D01*
X369758Y20826D01*
X368066Y22519D01*
X362987D01*
X359602Y15748D02*
X356216D01*
X357909D01*
Y22519D01*
X359602D01*
X349445Y24212D02*
Y22519D01*
X351138D01*
X347752D01*
X349445D01*
Y17441D01*
X347752Y15748D01*
X342674Y22519D02*
Y17441D01*
X340981Y15748D01*
X335903D01*
Y14055D01*
X337595Y12362D01*
X339288D01*
X335903Y15748D02*
Y22519D01*
X320668Y15748D02*
X317282D01*
X315589Y17441D01*
Y20826D01*
X317282Y22519D01*
X320668D01*
X322360Y20826D01*
Y17441D01*
X320668Y15748D01*
X310511D02*
Y24212D01*
Y20826D01*
X312204D01*
X308818D01*
X310511D01*
Y24212D01*
X308818Y25905D01*
X293583Y15748D02*
Y25905D01*
X288505D01*
X286812Y24212D01*
Y20826D01*
X288505Y19134D01*
X293583D01*
X278348Y15748D02*
X281733D01*
X283426Y17441D01*
Y20826D01*
X281733Y22519D01*
X278348D01*
X276655Y20826D01*
Y19134D01*
X283426D01*
X273270Y15748D02*
Y22519D01*
X268191D01*
X266498Y20826D01*
Y15748D01*
X263113D02*
Y22519D01*
X258034D01*
X256342Y20826D01*
Y15748D01*
X252956D02*
X247878D01*
X246185Y17441D01*
X247878Y19134D01*
X251263D01*
X252956Y20826D01*
X251263Y22519D01*
X246185D01*
X242799D02*
Y17441D01*
X241107Y15748D01*
X236028D01*
Y14055D01*
X237721Y12362D01*
X239414D01*
X236028Y15748D02*
Y22519D01*
X232643Y15748D02*
X229257D01*
X230950D01*
Y25905D01*
X232643D01*
X224179Y22519D02*
X220793Y15748D01*
X217408Y22519D01*
X212329D02*
X208944D01*
X207251Y20826D01*
Y15748D01*
X212329D01*
X214022Y17441D01*
X212329Y19134D01*
X207251D01*
X203865Y15748D02*
Y22519D01*
X198787D01*
X197094Y20826D01*
Y15748D01*
X193709D02*
X190323D01*
X192016D01*
Y22519D01*
X193709D01*
X183552D02*
X180166D01*
X178473Y20826D01*
Y15748D01*
X183552D01*
X185245Y17441D01*
X183552Y19134D01*
X178473D01*
X43013Y114808D02*
X49784D01*
X43013Y121579D01*
Y123272D01*
X44706Y124965D01*
X48091D01*
X49784Y123272D01*
X39627D02*
X37935Y124965D01*
X34549D01*
X32856Y123272D01*
Y116501D01*
X34549Y114808D01*
X37935D01*
X39627Y116501D01*
Y123272D01*
X29471Y114808D02*
X26085D01*
X27778D01*
Y124965D01*
X29471Y123272D01*
X21007Y116501D02*
X19314Y114808D01*
X15928D01*
X14236Y116501D01*
Y123272D01*
X15928Y124965D01*
X19314D01*
X21007Y123272D01*
Y121579D01*
X19314Y119886D01*
X14236D01*
D141*
X147828Y581910D02*
Y569214D01*
Y575562D01*
X139364D01*
Y581910D01*
Y569214D01*
X133016Y577678D02*
X128784D01*
X126668Y575562D01*
Y569214D01*
X133016D01*
X135132Y571330D01*
X133016Y573446D01*
X126668D01*
X122436Y569214D02*
Y577678D01*
X116088D01*
X113972Y575562D01*
Y569214D01*
X109740D02*
Y577678D01*
X103392D01*
X101276Y575562D01*
Y569214D01*
X94929Y577678D02*
X90696D01*
X88581Y575562D01*
Y569214D01*
X94929D01*
X97044Y571330D01*
X94929Y573446D01*
X88581D01*
X490900Y579032D02*
X493016Y581148D01*
X497248D01*
X499364Y579032D01*
Y570568D01*
X497248Y568452D01*
X493016D01*
X490900Y570568D01*
Y574800D01*
X495132D01*
X484552Y576916D02*
X480320D01*
X478204Y574800D01*
Y568452D01*
X484552D01*
X486668Y570568D01*
X484552Y572684D01*
X478204D01*
X473972Y576916D02*
Y568452D01*
Y572684D01*
X471856Y574800D01*
X469740Y576916D01*
X467624D01*
X461276Y581148D02*
Y568452D01*
X454928D01*
X452812Y570568D01*
Y572684D01*
Y574800D01*
X454928Y576916D01*
X461276D01*
X442233Y568452D02*
X446465D01*
X448581Y570568D01*
Y574800D01*
X446465Y576916D01*
X442233D01*
X440117Y574800D01*
Y572684D01*
X448581D01*
X435885Y576916D02*
Y568452D01*
Y572684D01*
X433769Y574800D01*
X431653Y576916D01*
X429537D01*
X423189Y568452D02*
Y576916D01*
X421073D01*
X418957Y574800D01*
Y568452D01*
Y574800D01*
X416841Y576916D01*
X414725Y574800D01*
Y568452D01*
X408377Y576916D02*
X404145D01*
X402029Y574800D01*
Y568452D01*
X408377D01*
X410493Y570568D01*
X408377Y572684D01*
X402029D01*
X397797Y568452D02*
Y576916D01*
X391449D01*
X389333Y574800D01*
Y568452D01*
M02*
