G04*
G04 #@! TF.GenerationSoftware,Altium Limited,Altium Designer,19.0.10 (269)*
G04*
G04 Layer_Physical_Order=2*
G04 Layer_Color=36540*
%FSLAX44Y44*%
%MOMM*%
G71*
G01*
G75*
%ADD10C,0.2540*%
%ADD127C,0.1875*%
%ADD137R,1.0058X1.0058*%
%ADD140C,0.5080*%
G36*
X560476Y587751D02*
X560188Y587399D01*
X558375Y584008D01*
X557258Y580327D01*
X556881Y576500D01*
X557258Y572673D01*
X558375Y568992D01*
X560188Y565601D01*
X562628Y562628D01*
X565601Y560188D01*
X568992Y558375D01*
X572673Y557258D01*
X576500Y556881D01*
X580327Y557258D01*
X584008Y558375D01*
X587399Y560188D01*
X587751Y560476D01*
X588899Y559933D01*
Y40067D01*
X587751Y39524D01*
X587399Y39812D01*
X584008Y41625D01*
X580327Y42741D01*
X576500Y43118D01*
X572673Y42741D01*
X568992Y41625D01*
X565601Y39812D01*
X562628Y37372D01*
X560188Y34399D01*
X558375Y31008D01*
X557258Y27327D01*
X556881Y23500D01*
X557258Y19673D01*
X558375Y15992D01*
X560188Y12601D01*
X561665Y10800D01*
X561065Y9530D01*
X38935D01*
X38335Y10800D01*
X39812Y12601D01*
X41625Y15992D01*
X42741Y19673D01*
X43119Y23500D01*
X42741Y27327D01*
X41625Y31008D01*
X39812Y34399D01*
X37372Y37372D01*
X34399Y39812D01*
X31008Y41625D01*
X27327Y42741D01*
X23500Y43118D01*
X19673Y42741D01*
X15992Y41625D01*
X12601Y39812D01*
X10800Y38335D01*
X9530Y38935D01*
Y126251D01*
X9764Y126433D01*
X11476Y126156D01*
X11832Y125624D01*
X13512Y124501D01*
X14224Y124359D01*
Y129286D01*
X15494D01*
Y130556D01*
X20421D01*
X20279Y131268D01*
X19157Y132949D01*
X18256Y133550D01*
X18641Y134820D01*
X36859D01*
X37244Y133550D01*
X36723Y133202D01*
X35601Y131522D01*
X35459Y130810D01*
X45313D01*
X45171Y131522D01*
X44049Y133202D01*
X43528Y133550D01*
X43913Y134820D01*
X61000D01*
X61285Y134877D01*
X61574Y134852D01*
X62464Y134952D01*
X63020Y135128D01*
X63598Y135209D01*
X64444Y135505D01*
X64946Y135800D01*
X65318Y135942D01*
X65705Y135672D01*
X66174Y134938D01*
X65420Y133808D01*
X65278Y133096D01*
X68935D01*
Y136753D01*
X68390Y136644D01*
X68326Y136705D01*
X67791Y137842D01*
X68115Y138327D01*
X68516Y138751D01*
X68992Y139510D01*
X69200Y140054D01*
X69496Y140556D01*
X69791Y141402D01*
X69872Y141980D01*
X70048Y142535D01*
X70148Y143426D01*
X70123Y143715D01*
X70180Y144000D01*
Y157116D01*
X71449Y157501D01*
X71775Y157013D01*
X73456Y155890D01*
X74168Y155749D01*
Y160676D01*
Y165602D01*
X73456Y165461D01*
X71775Y164338D01*
X71449Y163850D01*
X70180Y164235D01*
Y184576D01*
X71085Y184939D01*
X71449Y185016D01*
X73064Y183937D01*
X73776Y183795D01*
Y188722D01*
Y193649D01*
X73064Y193507D01*
X71449Y192428D01*
X71085Y192505D01*
X70180Y192868D01*
Y223582D01*
X71449Y223820D01*
X72400Y222397D01*
X74080Y221275D01*
X74792Y221133D01*
Y226060D01*
Y230987D01*
X74080Y230845D01*
X72400Y229722D01*
X71449Y228300D01*
X70180Y228538D01*
X70179Y257858D01*
X71449Y258243D01*
X71980Y257449D01*
X73660Y256327D01*
X74372Y256185D01*
Y261112D01*
Y266039D01*
X73660Y265897D01*
X71980Y264774D01*
X71449Y263981D01*
X70179Y264366D01*
Y280210D01*
X71449Y280595D01*
X71980Y279802D01*
X73660Y278679D01*
X74372Y278537D01*
Y283464D01*
Y288391D01*
X73660Y288249D01*
X71980Y287127D01*
X71449Y286333D01*
X70179Y286718D01*
Y307766D01*
X71449Y308128D01*
X72948Y307127D01*
X73660Y306985D01*
Y311912D01*
Y316839D01*
X72948Y316697D01*
X71449Y315696D01*
X70179Y316058D01*
Y336214D01*
X71449Y336576D01*
X72948Y335575D01*
X73660Y335433D01*
Y340360D01*
Y345287D01*
X72948Y345145D01*
X71449Y344144D01*
X70179Y344506D01*
Y356000D01*
X70123Y356284D01*
X70148Y356574D01*
X70048Y357464D01*
X69872Y358020D01*
X69791Y358597D01*
X69496Y359443D01*
X69200Y359945D01*
X68992Y360490D01*
X68516Y361249D01*
X69443Y362109D01*
X70001Y361737D01*
X70713Y361595D01*
Y365252D01*
X67056D01*
X67198Y364540D01*
X66415Y363425D01*
X66372Y363400D01*
X66249Y363515D01*
X65491Y363992D01*
X64946Y364199D01*
X64443Y364495D01*
X63597Y364791D01*
X63020Y364872D01*
X62464Y365048D01*
X61574Y365147D01*
X61285Y365123D01*
X61000Y365179D01*
X9530D01*
Y561065D01*
X10800Y561665D01*
X12601Y560188D01*
X15992Y558375D01*
X19673Y557258D01*
X23500Y556881D01*
X27327Y557258D01*
X31008Y558375D01*
X34399Y560188D01*
X37372Y562628D01*
X39812Y565601D01*
X41625Y568992D01*
X42741Y572673D01*
X43119Y576500D01*
X42741Y580327D01*
X41625Y584008D01*
X39812Y587399D01*
X39524Y587751D01*
X40067Y588899D01*
X559933D01*
X560476Y587751D01*
D02*
G37*
%LPC*%
G36*
X62230Y562711D02*
Y559054D01*
X65887D01*
X65745Y559766D01*
X64623Y561446D01*
X62942Y562569D01*
X62230Y562711D01*
D02*
G37*
G36*
X59690D02*
X58978Y562569D01*
X57298Y561446D01*
X56175Y559766D01*
X56033Y559054D01*
X59690D01*
Y562711D01*
D02*
G37*
G36*
X325628Y576888D02*
X322578Y576487D01*
X319736Y575309D01*
X317295Y573436D01*
X315422Y570996D01*
X314245Y568153D01*
X313843Y565103D01*
X314245Y562053D01*
X315422Y559211D01*
X317295Y556770D01*
X319736Y554897D01*
X322578Y553720D01*
X325628Y553318D01*
X328678Y553720D01*
X331520Y554897D01*
X333961Y556770D01*
X335834Y559211D01*
X337011Y562053D01*
X337413Y565103D01*
X337011Y568153D01*
X335834Y570996D01*
X333961Y573436D01*
X331520Y575309D01*
X328678Y576487D01*
X325628Y576888D01*
D02*
G37*
G36*
X274828D02*
X271778Y576487D01*
X268936Y575309D01*
X266495Y573436D01*
X264622Y570996D01*
X263445Y568153D01*
X263043Y565103D01*
X263445Y562053D01*
X264622Y559211D01*
X266495Y556770D01*
X268936Y554897D01*
X271778Y553720D01*
X274828Y553318D01*
X277878Y553720D01*
X280720Y554897D01*
X283161Y556770D01*
X285034Y559211D01*
X286211Y562053D01*
X286613Y565103D01*
X286211Y568153D01*
X285034Y570996D01*
X283161Y573436D01*
X280720Y575309D01*
X277878Y576487D01*
X274828Y576888D01*
D02*
G37*
G36*
X65887Y556514D02*
X62230D01*
Y552857D01*
X62942Y552999D01*
X64623Y554122D01*
X65745Y555802D01*
X65887Y556514D01*
D02*
G37*
G36*
X59690D02*
X56033D01*
X56175Y555802D01*
X57298Y554122D01*
X58978Y552999D01*
X59690Y552857D01*
Y556514D01*
D02*
G37*
G36*
X38862Y550519D02*
Y546862D01*
X42519D01*
X42377Y547574D01*
X41255Y549254D01*
X39574Y550377D01*
X38862Y550519D01*
D02*
G37*
G36*
X36322D02*
X35610Y550377D01*
X33930Y549254D01*
X32807Y547574D01*
X32665Y546862D01*
X36322D01*
Y550519D01*
D02*
G37*
G36*
X213614Y545185D02*
Y541528D01*
X217271D01*
X217129Y542240D01*
X216007Y543921D01*
X214326Y545043D01*
X213614Y545185D01*
D02*
G37*
G36*
X211074D02*
X210362Y545043D01*
X208682Y543921D01*
X207559Y542240D01*
X207417Y541528D01*
X211074D01*
Y545185D01*
D02*
G37*
G36*
X42519Y544322D02*
X38862D01*
Y540665D01*
X39574Y540807D01*
X41255Y541930D01*
X42377Y543610D01*
X42519Y544322D01*
D02*
G37*
G36*
X36322D02*
X32665D01*
X32807Y543610D01*
X33930Y541930D01*
X35610Y540807D01*
X36322Y540665D01*
Y544322D01*
D02*
G37*
G36*
X539750Y543153D02*
Y539496D01*
X543407D01*
X543265Y540208D01*
X542142Y541889D01*
X540462Y543011D01*
X539750Y543153D01*
D02*
G37*
G36*
X537210D02*
X536498Y543011D01*
X534818Y541889D01*
X533695Y540208D01*
X533553Y539496D01*
X537210D01*
Y543153D01*
D02*
G37*
G36*
X217271Y538988D02*
X213614D01*
Y535331D01*
X214326Y535473D01*
X216007Y536595D01*
X217129Y538276D01*
X217271Y538988D01*
D02*
G37*
G36*
X211074D02*
X207417D01*
X207559Y538276D01*
X208682Y536595D01*
X210362Y535473D01*
X211074Y535331D01*
Y538988D01*
D02*
G37*
G36*
X543407Y536956D02*
X539750D01*
Y533299D01*
X540462Y533441D01*
X542142Y534563D01*
X543265Y536244D01*
X543407Y536956D01*
D02*
G37*
G36*
X537210D02*
X533553D01*
X533695Y536244D01*
X534818Y534563D01*
X536498Y533441D01*
X537210Y533299D01*
Y536956D01*
D02*
G37*
G36*
X369062Y528929D02*
Y525272D01*
X372719D01*
X372577Y525984D01*
X371455Y527664D01*
X369774Y528787D01*
X369062Y528929D01*
D02*
G37*
G36*
X366522D02*
X365810Y528787D01*
X364129Y527664D01*
X363007Y525984D01*
X362865Y525272D01*
X366522D01*
Y528929D01*
D02*
G37*
G36*
X141986Y525373D02*
Y521716D01*
X145643D01*
X145501Y522428D01*
X144378Y524109D01*
X142698Y525231D01*
X141986Y525373D01*
D02*
G37*
G36*
X139446D02*
X138734Y525231D01*
X137053Y524109D01*
X135931Y522428D01*
X135789Y521716D01*
X139446D01*
Y525373D01*
D02*
G37*
G36*
X372719Y522732D02*
X369062D01*
Y519075D01*
X369774Y519217D01*
X371455Y520340D01*
X372577Y522020D01*
X372719Y522732D01*
D02*
G37*
G36*
X366522D02*
X362865D01*
X363007Y522020D01*
X364129Y520340D01*
X365810Y519217D01*
X366522Y519075D01*
Y522732D01*
D02*
G37*
G36*
X145643Y519176D02*
X141986D01*
Y515519D01*
X142698Y515661D01*
X144378Y516783D01*
X145501Y518464D01*
X145643Y519176D01*
D02*
G37*
G36*
X139446D02*
X135789D01*
X135931Y518464D01*
X137053Y516783D01*
X138734Y515661D01*
X139446Y515519D01*
Y519176D01*
D02*
G37*
G36*
X66802Y516483D02*
Y512826D01*
X70459D01*
X70317Y513538D01*
X69194Y515219D01*
X67514Y516341D01*
X66802Y516483D01*
D02*
G37*
G36*
X64262D02*
X63550Y516341D01*
X61870Y515219D01*
X60747Y513538D01*
X60605Y512826D01*
X64262D01*
Y516483D01*
D02*
G37*
G36*
X70459Y510286D02*
X66802D01*
Y506629D01*
X67514Y506771D01*
X69194Y507893D01*
X70317Y509574D01*
X70459Y510286D01*
D02*
G37*
G36*
X64262D02*
X60605D01*
X60747Y509574D01*
X61870Y507893D01*
X63550Y506771D01*
X64262Y506629D01*
Y510286D01*
D02*
G37*
G36*
X150748Y496021D02*
Y492364D01*
X154405D01*
X154263Y493076D01*
X153140Y494757D01*
X151460Y495879D01*
X150748Y496021D01*
D02*
G37*
G36*
X148208D02*
X147496Y495879D01*
X145815Y494757D01*
X144693Y493076D01*
X144551Y492364D01*
X148208D01*
Y496021D01*
D02*
G37*
G36*
X493522Y499190D02*
X491936Y498874D01*
X490592Y497976D01*
X489694Y496632D01*
X489378Y495046D01*
X489694Y493460D01*
X490592Y492116D01*
X491936Y491218D01*
X493522Y490902D01*
X495108Y491218D01*
X496452Y492116D01*
X497350Y493460D01*
X497666Y495046D01*
X497350Y496632D01*
X496452Y497976D01*
X495108Y498874D01*
X493522Y499190D01*
D02*
G37*
G36*
X561086Y495888D02*
X559500Y495572D01*
X558156Y494674D01*
X557258Y493330D01*
X556942Y491744D01*
X557258Y490158D01*
X558156Y488814D01*
X559500Y487916D01*
X561086Y487600D01*
X562672Y487916D01*
X564016Y488814D01*
X564914Y490158D01*
X565230Y491744D01*
X564914Y493330D01*
X564016Y494674D01*
X562672Y495572D01*
X561086Y495888D01*
D02*
G37*
G36*
X154405Y489824D02*
X150748D01*
Y486167D01*
X151460Y486309D01*
X153140Y487431D01*
X154263Y489112D01*
X154405Y489824D01*
D02*
G37*
G36*
X148208D02*
X144551D01*
X144693Y489112D01*
X145815Y487431D01*
X147496Y486309D01*
X148208Y486167D01*
Y489824D01*
D02*
G37*
G36*
X38862Y489305D02*
Y485648D01*
X42519D01*
X42377Y486360D01*
X41255Y488041D01*
X39574Y489163D01*
X38862Y489305D01*
D02*
G37*
G36*
X36322D02*
X35610Y489163D01*
X33930Y488041D01*
X32807Y486360D01*
X32665Y485648D01*
X36322D01*
Y489305D01*
D02*
G37*
G36*
X211582Y483717D02*
Y480060D01*
X215239D01*
X215097Y480772D01*
X213974Y482453D01*
X212294Y483575D01*
X211582Y483717D01*
D02*
G37*
G36*
X209042D02*
X208330Y483575D01*
X206649Y482453D01*
X205527Y480772D01*
X205385Y480060D01*
X209042D01*
Y483717D01*
D02*
G37*
G36*
X42519Y483108D02*
X38862D01*
Y479451D01*
X39574Y479593D01*
X41255Y480715D01*
X42377Y482396D01*
X42519Y483108D01*
D02*
G37*
G36*
X36322D02*
X32665D01*
X32807Y482396D01*
X33930Y480715D01*
X35610Y479593D01*
X36322Y479451D01*
Y483108D01*
D02*
G37*
G36*
X215239Y477520D02*
X211582D01*
Y473863D01*
X212294Y474005D01*
X213974Y475127D01*
X215097Y476808D01*
X215239Y477520D01*
D02*
G37*
G36*
X209042D02*
X205385D01*
X205527Y476808D01*
X206649Y475127D01*
X208330Y474005D01*
X209042Y473863D01*
Y477520D01*
D02*
G37*
G36*
X265654Y473811D02*
Y470154D01*
X269311D01*
X269169Y470866D01*
X268046Y472547D01*
X266366Y473669D01*
X265654Y473811D01*
D02*
G37*
G36*
X263114D02*
X262402Y473669D01*
X260721Y472547D01*
X259599Y470866D01*
X259457Y470154D01*
X263114D01*
Y473811D01*
D02*
G37*
G36*
X66294Y477346D02*
X64708Y477030D01*
X63364Y476132D01*
X62466Y474788D01*
X62150Y473202D01*
X62466Y471616D01*
X63364Y470272D01*
X64708Y469374D01*
X66294Y469058D01*
X67880Y469374D01*
X69224Y470272D01*
X70122Y471616D01*
X70438Y473202D01*
X70122Y474788D01*
X69224Y476132D01*
X67880Y477030D01*
X66294Y477346D01*
D02*
G37*
G36*
X269311Y467614D02*
X265654D01*
Y463957D01*
X266366Y464099D01*
X268046Y465221D01*
X269169Y466902D01*
X269311Y467614D01*
D02*
G37*
G36*
X263114D02*
X259457D01*
X259599Y466902D01*
X260721Y465221D01*
X262402Y464099D01*
X263114Y463957D01*
Y467614D01*
D02*
G37*
G36*
X118284Y465031D02*
X117572Y464889D01*
X115892Y463767D01*
X115318Y462908D01*
X113790D01*
X113216Y463767D01*
X111536Y464889D01*
X110824Y465031D01*
Y460104D01*
X109554D01*
Y458834D01*
X104627D01*
X104769Y458122D01*
X105892Y456441D01*
X106195Y456239D01*
Y454969D01*
X105892Y454767D01*
X104769Y453086D01*
X104627Y452374D01*
X109554D01*
Y449834D01*
X104627D01*
X104769Y449122D01*
X105892Y447441D01*
X106195Y447239D01*
Y445969D01*
X105892Y445766D01*
X104769Y444086D01*
X104627Y443374D01*
X109554D01*
Y442104D01*
X110824D01*
Y437177D01*
X111536Y437319D01*
X113216Y438442D01*
X113790Y439300D01*
X115318D01*
X115892Y438442D01*
X117572Y437319D01*
X118284Y437177D01*
Y442104D01*
X119554D01*
Y443374D01*
X124481D01*
X124339Y444086D01*
X123216Y445766D01*
X122913Y445969D01*
Y447239D01*
X123216Y447441D01*
X124339Y449122D01*
X124481Y449834D01*
X119554D01*
Y452374D01*
X124481D01*
X124339Y453086D01*
X123216Y454767D01*
X122913Y454969D01*
Y456239D01*
X123216Y456441D01*
X124339Y458122D01*
X124481Y458834D01*
X119554D01*
Y460104D01*
X118284D01*
Y465031D01*
D02*
G37*
G36*
X120824D02*
Y461374D01*
X124481D01*
X124339Y462086D01*
X123216Y463767D01*
X121536Y464889D01*
X120824Y465031D01*
D02*
G37*
G36*
X108284D02*
X107572Y464889D01*
X105892Y463767D01*
X104769Y462086D01*
X104627Y461374D01*
X108284D01*
Y465031D01*
D02*
G37*
G36*
X143510Y467948D02*
X141924Y467632D01*
X140580Y466734D01*
X139682Y465390D01*
X139366Y463804D01*
X139682Y462218D01*
X140580Y460874D01*
X141924Y459976D01*
X143510Y459660D01*
X145096Y459976D01*
X146440Y460874D01*
X147338Y462218D01*
X147654Y463804D01*
X147338Y465390D01*
X146440Y466734D01*
X145096Y467632D01*
X143510Y467948D01*
D02*
G37*
G36*
X558546Y460349D02*
Y456692D01*
X562203D01*
X562061Y457404D01*
X560938Y459085D01*
X559258Y460207D01*
X558546Y460349D01*
D02*
G37*
G36*
X556006D02*
X555294Y460207D01*
X553614Y459085D01*
X552491Y457404D01*
X552349Y456692D01*
X556006D01*
Y460349D01*
D02*
G37*
G36*
X17272Y455015D02*
Y451358D01*
X20929D01*
X20787Y452070D01*
X19664Y453750D01*
X17984Y454873D01*
X17272Y455015D01*
D02*
G37*
G36*
X14732D02*
X14020Y454873D01*
X12340Y453750D01*
X11217Y452070D01*
X11075Y451358D01*
X14732D01*
Y455015D01*
D02*
G37*
G36*
X562203Y454152D02*
X558546D01*
Y450495D01*
X559258Y450637D01*
X560938Y451759D01*
X562061Y453440D01*
X562203Y454152D01*
D02*
G37*
G36*
X556006D02*
X552349D01*
X552491Y453440D01*
X553614Y451759D01*
X555294Y450637D01*
X556006Y450495D01*
Y454152D01*
D02*
G37*
G36*
X141986Y454232D02*
X140400Y453916D01*
X139056Y453018D01*
X138158Y451674D01*
X137842Y450088D01*
X138158Y448502D01*
X139056Y447158D01*
X140400Y446260D01*
X141986Y445944D01*
X143572Y446260D01*
X144916Y447158D01*
X145814Y448502D01*
X146130Y450088D01*
X145814Y451674D01*
X144916Y453018D01*
X143572Y453916D01*
X141986Y454232D01*
D02*
G37*
G36*
X20929Y448818D02*
X17272D01*
Y445161D01*
X17984Y445303D01*
X19664Y446426D01*
X20787Y448106D01*
X20929Y448818D01*
D02*
G37*
G36*
X14732D02*
X11075D01*
X11217Y448106D01*
X12340Y446426D01*
X14020Y445303D01*
X14732Y445161D01*
Y448818D01*
D02*
G37*
G36*
X533400Y449406D02*
X531814Y449090D01*
X530470Y448192D01*
X529572Y446848D01*
X529256Y445262D01*
X529572Y443676D01*
X530470Y442332D01*
X531814Y441434D01*
X533400Y441118D01*
X534986Y441434D01*
X536330Y442332D01*
X537228Y443676D01*
X537544Y445262D01*
X537228Y446848D01*
X536330Y448192D01*
X534986Y449090D01*
X533400Y449406D01*
D02*
G37*
G36*
X124481Y440834D02*
X120824D01*
Y437177D01*
X121536Y437319D01*
X123216Y438442D01*
X124339Y440122D01*
X124481Y440834D01*
D02*
G37*
G36*
X108284D02*
X104627D01*
X104769Y440122D01*
X105892Y438442D01*
X107572Y437319D01*
X108284Y437177D01*
Y440834D01*
D02*
G37*
G36*
X141119Y444072D02*
X139533Y443756D01*
X138189Y442858D01*
X137290Y441514D01*
X136975Y439928D01*
X137290Y438342D01*
X138189Y436998D01*
X139533Y436100D01*
X141119Y435784D01*
X142704Y436100D01*
X144049Y436998D01*
X144947Y438342D01*
X145262Y439928D01*
X144947Y441514D01*
X144049Y442858D01*
X142704Y443756D01*
X141119Y444072D01*
D02*
G37*
G36*
X388874Y443636D02*
X387288Y443320D01*
X385944Y442422D01*
X385046Y441078D01*
X384730Y439492D01*
X385046Y437906D01*
X385944Y436562D01*
X387288Y435664D01*
X388874Y435348D01*
X390460Y435664D01*
X391804Y436562D01*
X392702Y437906D01*
X393018Y439492D01*
X392702Y441078D01*
X391804Y442422D01*
X390460Y443320D01*
X388874Y443636D01*
D02*
G37*
G36*
X301244Y440151D02*
X299280Y439892D01*
X297449Y439134D01*
X295878Y437928D01*
X294672Y436357D01*
X293914Y434526D01*
X293655Y432562D01*
X293914Y430598D01*
X294672Y428768D01*
X295878Y427196D01*
X297449Y425990D01*
X299280Y425232D01*
X301244Y424973D01*
X303208Y425232D01*
X305039Y425990D01*
X306610Y427196D01*
X307816Y428768D01*
X308574Y430598D01*
X308833Y432562D01*
X308574Y434526D01*
X307816Y436357D01*
X306610Y437928D01*
X305039Y439134D01*
X303208Y439892D01*
X301244Y440151D01*
D02*
G37*
G36*
X56896Y424281D02*
Y420624D01*
X60553D01*
X60411Y421336D01*
X59289Y423017D01*
X57608Y424139D01*
X56896Y424281D01*
D02*
G37*
G36*
X54356D02*
X53644Y424139D01*
X51964Y423017D01*
X50841Y421336D01*
X50699Y420624D01*
X54356D01*
Y424281D01*
D02*
G37*
G36*
X60553Y418084D02*
X56896D01*
Y414427D01*
X57608Y414569D01*
X59289Y415691D01*
X60411Y417372D01*
X60553Y418084D01*
D02*
G37*
G36*
X54356D02*
X50699D01*
X50841Y417372D01*
X51964Y415691D01*
X53644Y414569D01*
X54356Y414427D01*
Y418084D01*
D02*
G37*
G36*
X433070Y401400D02*
X431484Y401084D01*
X430140Y400186D01*
X429242Y398842D01*
X428926Y397256D01*
X429242Y395670D01*
X430140Y394326D01*
X431484Y393428D01*
X433070Y393112D01*
X434656Y393428D01*
X436000Y394326D01*
X436898Y395670D01*
X437214Y397256D01*
X436898Y398842D01*
X436000Y400186D01*
X434656Y401084D01*
X433070Y401400D01*
D02*
G37*
G36*
X244856Y389970D02*
X243270Y389654D01*
X241926Y388756D01*
X241028Y387412D01*
X240712Y385826D01*
X241028Y384240D01*
X241926Y382896D01*
X243270Y381998D01*
X244856Y381682D01*
X246442Y381998D01*
X247786Y382896D01*
X248684Y384240D01*
X249000Y385826D01*
X248684Y387412D01*
X247786Y388756D01*
X246442Y389654D01*
X244856Y389970D01*
D02*
G37*
G36*
X21066Y389462D02*
X19480Y389146D01*
X18136Y388248D01*
X17238Y386904D01*
X16922Y385318D01*
X17238Y383732D01*
X18136Y382388D01*
X19480Y381490D01*
X21066Y381174D01*
X22652Y381490D01*
X23996Y382388D01*
X24894Y383732D01*
X25210Y385318D01*
X24894Y386904D01*
X23996Y388248D01*
X22652Y389146D01*
X21066Y389462D01*
D02*
G37*
G36*
X27686Y379976D02*
Y376319D01*
X31343D01*
X31201Y377031D01*
X30078Y378712D01*
X28398Y379834D01*
X27686Y379976D01*
D02*
G37*
G36*
X25146D02*
X24434Y379834D01*
X22754Y378712D01*
X21631Y377031D01*
X21489Y376319D01*
X25146D01*
Y379976D01*
D02*
G37*
G36*
X283368Y389286D02*
X268320D01*
Y374238D01*
X283368D01*
Y389286D01*
D02*
G37*
G36*
X326644Y389351D02*
X324680Y389092D01*
X322850Y388334D01*
X321278Y387128D01*
X320072Y385556D01*
X319314Y383726D01*
X319055Y381762D01*
X319314Y379798D01*
X320072Y377967D01*
X321278Y376396D01*
X322850Y375190D01*
X324680Y374432D01*
X326644Y374173D01*
X328608Y374432D01*
X330438Y375190D01*
X332010Y376396D01*
X333216Y377967D01*
X333974Y379798D01*
X334233Y381762D01*
X333974Y383726D01*
X333216Y385556D01*
X332010Y387128D01*
X330438Y388334D01*
X328608Y389092D01*
X326644Y389351D01*
D02*
G37*
G36*
X31343Y373779D02*
X27686D01*
Y370122D01*
X28398Y370264D01*
X30078Y371386D01*
X31201Y373067D01*
X31343Y373779D01*
D02*
G37*
G36*
X25146D02*
X21489D01*
X21631Y373067D01*
X22754Y371386D01*
X24434Y370264D01*
X25146Y370122D01*
Y373779D01*
D02*
G37*
G36*
X68039Y380229D02*
X66057Y379834D01*
X64377Y378712D01*
X63254Y377031D01*
X62860Y375049D01*
X63254Y373067D01*
X64377Y371386D01*
X66057Y370264D01*
X66753Y370125D01*
X67338Y368714D01*
X67198Y368504D01*
X67056Y367792D01*
X76910D01*
X76768Y368504D01*
X76759Y368518D01*
X77390Y369860D01*
X78690Y370119D01*
X80371Y371241D01*
X80779Y371853D01*
X82049D01*
X82458Y371241D01*
X84138Y370119D01*
X86120Y369725D01*
X88102Y370119D01*
X89782Y371241D01*
X90177Y371832D01*
X91447D01*
X91841Y371241D01*
X93522Y370119D01*
X95504Y369725D01*
X97486Y370119D01*
X99166Y371241D01*
X100289Y372922D01*
X100683Y374904D01*
X100289Y376886D01*
X99166Y378567D01*
X97486Y379689D01*
X95504Y380084D01*
X93522Y379689D01*
X91841Y378567D01*
X91447Y377976D01*
X90177D01*
X89782Y378567D01*
X88102Y379689D01*
X86120Y380084D01*
X84138Y379689D01*
X82458Y378567D01*
X82049Y377955D01*
X80779D01*
X80371Y378567D01*
X78690Y379689D01*
X76708Y380084D01*
X74726Y379689D01*
X73239Y378696D01*
X72494Y378567D01*
X72021D01*
X71642Y378751D01*
X70021Y379834D01*
X68039Y380229D01*
D02*
G37*
G36*
X316230Y370920D02*
X314644Y370604D01*
X313300Y369706D01*
X312402Y368362D01*
X312086Y366776D01*
X312402Y365190D01*
X313300Y363846D01*
X314644Y362948D01*
X316230Y362632D01*
X317816Y362948D01*
X319160Y363846D01*
X320058Y365190D01*
X320374Y366776D01*
X320058Y368362D01*
X319160Y369706D01*
X317816Y370604D01*
X316230Y370920D01*
D02*
G37*
G36*
X76910Y365252D02*
X73253D01*
Y361595D01*
X73965Y361737D01*
X75645Y362859D01*
X76768Y364540D01*
X76910Y365252D01*
D02*
G37*
G36*
X521208Y362051D02*
Y358394D01*
X524865D01*
X524723Y359106D01*
X523601Y360787D01*
X521920Y361909D01*
X521208Y362051D01*
D02*
G37*
G36*
X518668D02*
X517956Y361909D01*
X516275Y360787D01*
X515153Y359106D01*
X515011Y358394D01*
X518668D01*
Y362051D01*
D02*
G37*
G36*
X413240Y364824D02*
X411655Y364508D01*
X410310Y363610D01*
X409412Y362266D01*
X409097Y360680D01*
X409412Y359094D01*
X410310Y357750D01*
X411655Y356852D01*
X413240Y356536D01*
X414826Y356852D01*
X416170Y357750D01*
X417069Y359094D01*
X417384Y360680D01*
X417069Y362266D01*
X416170Y363610D01*
X414826Y364508D01*
X413240Y364824D01*
D02*
G37*
G36*
X524865Y355854D02*
X521208D01*
Y352197D01*
X521920Y352339D01*
X523601Y353461D01*
X524723Y355142D01*
X524865Y355854D01*
D02*
G37*
G36*
X518668D02*
X515011D01*
X515153Y355142D01*
X516275Y353461D01*
X517956Y352339D01*
X518668Y352197D01*
Y355854D01*
D02*
G37*
G36*
X102108Y355680D02*
X100522Y355364D01*
X99178Y354466D01*
X98280Y353122D01*
X97964Y351536D01*
X98280Y349950D01*
X99178Y348606D01*
X100522Y347708D01*
X102108Y347392D01*
X103694Y347708D01*
X105038Y348606D01*
X105936Y349950D01*
X106252Y351536D01*
X105936Y353122D01*
X105038Y354466D01*
X103694Y355364D01*
X102108Y355680D01*
D02*
G37*
G36*
X243586Y354156D02*
X242000Y353840D01*
X240656Y352942D01*
X239758Y351598D01*
X239442Y350012D01*
X239758Y348426D01*
X240656Y347082D01*
X242000Y346184D01*
X243586Y345868D01*
X245172Y346184D01*
X246516Y347082D01*
X247414Y348426D01*
X247730Y350012D01*
X247414Y351598D01*
X246516Y352942D01*
X245172Y353840D01*
X243586Y354156D01*
D02*
G37*
G36*
X184658Y351108D02*
X183072Y350792D01*
X181728Y349894D01*
X180830Y348550D01*
X180514Y346964D01*
X180830Y345378D01*
X181728Y344034D01*
X183072Y343136D01*
X184658Y342820D01*
X186244Y343136D01*
X187588Y344034D01*
X188486Y345378D01*
X188802Y346964D01*
X188486Y348550D01*
X187588Y349894D01*
X186244Y350792D01*
X184658Y351108D01*
D02*
G37*
G36*
X76200Y345287D02*
Y341630D01*
X79857D01*
X79715Y342342D01*
X78593Y344022D01*
X76912Y345145D01*
X76200Y345287D01*
D02*
G37*
G36*
X350520Y347298D02*
X348934Y346982D01*
X347590Y346084D01*
X346692Y344740D01*
X346376Y343154D01*
X346692Y341568D01*
X347590Y340224D01*
X348934Y339326D01*
X350520Y339010D01*
X352106Y339326D01*
X353450Y340224D01*
X354348Y341568D01*
X354664Y343154D01*
X354348Y344740D01*
X353450Y346084D01*
X352106Y346982D01*
X350520Y347298D01*
D02*
G37*
G36*
X173990Y343742D02*
X172404Y343426D01*
X171060Y342528D01*
X170162Y341184D01*
X169846Y339598D01*
X170162Y338012D01*
X171060Y336668D01*
X172404Y335770D01*
X173990Y335454D01*
X175576Y335770D01*
X176920Y336668D01*
X177818Y338012D01*
X178134Y339598D01*
X177818Y341184D01*
X176920Y342528D01*
X175576Y343426D01*
X173990Y343742D01*
D02*
G37*
G36*
X79857Y339090D02*
X76200D01*
Y335433D01*
X76912Y335575D01*
X78593Y336698D01*
X79715Y338378D01*
X79857Y339090D01*
D02*
G37*
G36*
X318262Y337921D02*
Y334264D01*
X321919D01*
X321777Y334976D01*
X320654Y336656D01*
X318974Y337779D01*
X318262Y337921D01*
D02*
G37*
G36*
X315722D02*
X315010Y337779D01*
X313330Y336656D01*
X312207Y334976D01*
X312065Y334264D01*
X315722D01*
Y337921D01*
D02*
G37*
G36*
X211208Y349892D02*
X193160D01*
Y331844D01*
X211208D01*
Y349892D01*
D02*
G37*
G36*
X140088D02*
X122040D01*
Y331844D01*
X140088D01*
Y349892D01*
D02*
G37*
G36*
X227584Y349970D02*
X225228Y349660D01*
X223033Y348750D01*
X221148Y347304D01*
X219702Y345419D01*
X218792Y343224D01*
X218482Y340868D01*
X218792Y338512D01*
X219702Y336317D01*
X221148Y334432D01*
X223033Y332986D01*
X225228Y332076D01*
X227584Y331766D01*
X229940Y332076D01*
X232135Y332986D01*
X234020Y334432D01*
X235466Y336317D01*
X236376Y338512D01*
X236686Y340868D01*
X236376Y343224D01*
X235466Y345419D01*
X234020Y347304D01*
X232135Y348750D01*
X229940Y349660D01*
X227584Y349970D01*
D02*
G37*
G36*
X156464D02*
X154108Y349660D01*
X151913Y348750D01*
X150028Y347304D01*
X148582Y345419D01*
X147672Y343224D01*
X147362Y340868D01*
X147672Y338512D01*
X148582Y336317D01*
X150028Y334432D01*
X151913Y332986D01*
X154108Y332076D01*
X156464Y331766D01*
X158820Y332076D01*
X161015Y332986D01*
X162900Y334432D01*
X164346Y336317D01*
X165256Y338512D01*
X165566Y340868D01*
X165256Y343224D01*
X164346Y345419D01*
X162900Y347304D01*
X161015Y348750D01*
X158820Y349660D01*
X156464Y349970D01*
D02*
G37*
G36*
X321919Y331724D02*
X318262D01*
Y328067D01*
X318974Y328209D01*
X320654Y329332D01*
X321777Y331012D01*
X321919Y331724D01*
D02*
G37*
G36*
X315722D02*
X312065D01*
X312207Y331012D01*
X313330Y329332D01*
X315010Y328209D01*
X315722Y328067D01*
Y331724D01*
D02*
G37*
G36*
X293408Y335868D02*
X291822Y335552D01*
X290478Y334654D01*
X289580Y333310D01*
X289264Y331724D01*
X289580Y330138D01*
X290478Y328794D01*
X291822Y327896D01*
X293408Y327580D01*
X294994Y327896D01*
X296338Y328794D01*
X297236Y330138D01*
X297552Y331724D01*
X297236Y333310D01*
X296338Y334654D01*
X294994Y335552D01*
X293408Y335868D01*
D02*
G37*
G36*
X562864Y330809D02*
Y327152D01*
X566521D01*
X566379Y327864D01*
X565257Y329544D01*
X563576Y330667D01*
X562864Y330809D01*
D02*
G37*
G36*
X560324D02*
X559612Y330667D01*
X557932Y329544D01*
X556809Y327864D01*
X556667Y327152D01*
X560324D01*
Y330809D01*
D02*
G37*
G36*
X249428Y333074D02*
X247842Y332758D01*
X246498Y331860D01*
X245600Y330516D01*
X245284Y328930D01*
X245600Y327344D01*
X246498Y326000D01*
X247842Y325102D01*
X249428Y324786D01*
X251014Y325102D01*
X252358Y326000D01*
X253256Y327344D01*
X253572Y328930D01*
X253256Y330516D01*
X252358Y331860D01*
X251014Y332758D01*
X249428Y333074D01*
D02*
G37*
G36*
X504190Y331296D02*
X502604Y330980D01*
X501260Y330082D01*
X500362Y328738D01*
X500046Y327152D01*
X500362Y325566D01*
X501260Y324222D01*
X502604Y323324D01*
X504190Y323008D01*
X505776Y323324D01*
X507120Y324222D01*
X508018Y325566D01*
X508334Y327152D01*
X508018Y328738D01*
X507120Y330082D01*
X505776Y330980D01*
X504190Y331296D01*
D02*
G37*
G36*
X566521Y324612D02*
X562864D01*
Y320955D01*
X563576Y321097D01*
X565257Y322220D01*
X566379Y323900D01*
X566521Y324612D01*
D02*
G37*
G36*
X560324D02*
X556667D01*
X556809Y323900D01*
X557932Y322220D01*
X559612Y321097D01*
X560324Y320955D01*
Y324612D01*
D02*
G37*
G36*
X359410Y329010D02*
X357824Y328694D01*
X356480Y327796D01*
X355582Y326452D01*
X355266Y324866D01*
X355582Y323280D01*
X356480Y321936D01*
X357824Y321038D01*
X359410Y320722D01*
X360996Y321038D01*
X362340Y321936D01*
X363238Y323280D01*
X363554Y324866D01*
X363238Y326452D01*
X362340Y327796D01*
X360996Y328694D01*
X359410Y329010D01*
D02*
G37*
G36*
X483362Y321665D02*
Y318008D01*
X487019D01*
X486877Y318720D01*
X485755Y320401D01*
X484074Y321523D01*
X483362Y321665D01*
D02*
G37*
G36*
X480822D02*
X480110Y321523D01*
X478429Y320401D01*
X477307Y318720D01*
X477165Y318008D01*
X480822D01*
Y321665D01*
D02*
G37*
G36*
X76200Y316839D02*
Y313182D01*
X79857D01*
X79715Y313894D01*
X78593Y315574D01*
X76912Y316697D01*
X76200Y316839D01*
D02*
G37*
G36*
X487019Y315468D02*
X483362D01*
Y311811D01*
X484074Y311953D01*
X485755Y313076D01*
X486877Y314756D01*
X487019Y315468D01*
D02*
G37*
G36*
X480822D02*
X477165D01*
X477307Y314756D01*
X478429Y313076D01*
X480110Y311953D01*
X480822Y311811D01*
Y315468D01*
D02*
G37*
G36*
X408432Y313537D02*
Y309880D01*
X412089D01*
X411947Y310592D01*
X410825Y312272D01*
X409144Y313395D01*
X408432Y313537D01*
D02*
G37*
G36*
X405892D02*
X405180Y313395D01*
X403499Y312272D01*
X402377Y310592D01*
X402235Y309880D01*
X405892D01*
Y313537D01*
D02*
G37*
G36*
X79857Y310642D02*
X76200D01*
Y306985D01*
X76912Y307127D01*
X78593Y308249D01*
X79715Y309930D01*
X79857Y310642D01*
D02*
G37*
G36*
X418084Y313008D02*
X416498Y312692D01*
X415154Y311794D01*
X414256Y310450D01*
X413940Y308864D01*
X414256Y307278D01*
X415154Y305934D01*
X416498Y305036D01*
X418084Y304720D01*
X419670Y305036D01*
X421014Y305934D01*
X421912Y307278D01*
X422228Y308864D01*
X421912Y310450D01*
X421014Y311794D01*
X419670Y312692D01*
X418084Y313008D01*
D02*
G37*
G36*
X412089Y307340D02*
X408432D01*
Y303683D01*
X409144Y303825D01*
X410825Y304947D01*
X411947Y306628D01*
X412089Y307340D01*
D02*
G37*
G36*
X405892D02*
X402235D01*
X402377Y306628D01*
X403499Y304947D01*
X405180Y303825D01*
X405892Y303683D01*
Y307340D01*
D02*
G37*
G36*
X90170Y305155D02*
Y301498D01*
X93827D01*
X93685Y302210D01*
X92563Y303890D01*
X90882Y305013D01*
X90170Y305155D01*
D02*
G37*
G36*
X87630D02*
X86918Y305013D01*
X85238Y303890D01*
X84115Y302210D01*
X83973Y301498D01*
X87630D01*
Y305155D01*
D02*
G37*
G36*
X198374Y303885D02*
Y300228D01*
X202031D01*
X201889Y300940D01*
X200767Y302621D01*
X199086Y303743D01*
X198374Y303885D01*
D02*
G37*
G36*
X195834D02*
X195122Y303743D01*
X193442Y302621D01*
X192319Y300940D01*
X192177Y300228D01*
X195834D01*
Y303885D01*
D02*
G37*
G36*
X93827Y298958D02*
X90170D01*
Y295301D01*
X90882Y295443D01*
X92563Y296565D01*
X93685Y298246D01*
X93827Y298958D01*
D02*
G37*
G36*
X87630D02*
X83973D01*
X84115Y298246D01*
X85238Y296565D01*
X86918Y295443D01*
X87630Y295301D01*
Y298958D01*
D02*
G37*
G36*
X202031Y297688D02*
X198374D01*
Y294031D01*
X199086Y294173D01*
X200767Y295296D01*
X201889Y296976D01*
X202031Y297688D01*
D02*
G37*
G36*
X195834D02*
X192177D01*
X192319Y296976D01*
X193442Y295296D01*
X195122Y294173D01*
X195834Y294031D01*
Y297688D01*
D02*
G37*
G36*
X407924Y291947D02*
Y288290D01*
X411581D01*
X411439Y289002D01*
X410317Y290683D01*
X408636Y291805D01*
X407924Y291947D01*
D02*
G37*
G36*
X405384D02*
X404672Y291805D01*
X402991Y290683D01*
X401869Y289002D01*
X401727Y288290D01*
X405384D01*
Y291947D01*
D02*
G37*
G36*
X567436Y294720D02*
X565850Y294404D01*
X564506Y293506D01*
X563608Y292162D01*
X563292Y290576D01*
X563608Y288990D01*
X564506Y287646D01*
X565850Y286748D01*
X567436Y286432D01*
X569022Y286748D01*
X570366Y287646D01*
X571264Y288990D01*
X571580Y290576D01*
X571264Y292162D01*
X570366Y293506D01*
X569022Y294404D01*
X567436Y294720D01*
D02*
G37*
G36*
X76912Y288391D02*
Y284734D01*
X80569D01*
X80427Y285446D01*
X79305Y287127D01*
X77624Y288249D01*
X76912Y288391D01*
D02*
G37*
G36*
X411581Y285750D02*
X407924D01*
Y282093D01*
X408636Y282235D01*
X410317Y283358D01*
X411439Y285038D01*
X411581Y285750D01*
D02*
G37*
G36*
X405384D02*
X401727D01*
X401869Y285038D01*
X402991Y283358D01*
X404672Y282235D01*
X405384Y282093D01*
Y285750D01*
D02*
G37*
G36*
X80569Y282194D02*
X76912D01*
Y278537D01*
X77624Y278679D01*
X79305Y279802D01*
X80427Y281482D01*
X80569Y282194D01*
D02*
G37*
G36*
X99314Y283544D02*
X97728Y283228D01*
X96384Y282330D01*
X95486Y280986D01*
X95170Y279400D01*
X95486Y277814D01*
X96384Y276470D01*
X97728Y275572D01*
X99314Y275256D01*
X100900Y275572D01*
X102244Y276470D01*
X103142Y277814D01*
X103458Y279400D01*
X103142Y280986D01*
X102244Y282330D01*
X100900Y283228D01*
X99314Y283544D01*
D02*
G37*
G36*
X558038Y272114D02*
X556452Y271798D01*
X555108Y270900D01*
X554210Y269556D01*
X553894Y267970D01*
X554210Y266384D01*
X555108Y265040D01*
X556452Y264142D01*
X558038Y263826D01*
X559624Y264142D01*
X560968Y265040D01*
X561866Y266384D01*
X562182Y267970D01*
X561866Y269556D01*
X560968Y270900D01*
X559624Y271798D01*
X558038Y272114D01*
D02*
G37*
G36*
X76912Y266039D02*
Y262382D01*
X80569D01*
X80427Y263094D01*
X79305Y264774D01*
X77624Y265897D01*
X76912Y266039D01*
D02*
G37*
G36*
X80569Y259842D02*
X76912D01*
Y256185D01*
X77624Y256327D01*
X79305Y257449D01*
X80427Y259130D01*
X80569Y259842D01*
D02*
G37*
G36*
X560324Y251561D02*
Y247904D01*
X563981D01*
X563839Y248616D01*
X562716Y250296D01*
X561036Y251419D01*
X560324Y251561D01*
D02*
G37*
G36*
X557784D02*
X557072Y251419D01*
X555392Y250296D01*
X554269Y248616D01*
X554127Y247904D01*
X557784D01*
Y251561D01*
D02*
G37*
G36*
X563981Y245364D02*
X560324D01*
Y241707D01*
X561036Y241849D01*
X562716Y242971D01*
X563839Y244652D01*
X563981Y245364D01*
D02*
G37*
G36*
X557784D02*
X554127D01*
X554269Y244652D01*
X555392Y242971D01*
X557072Y241849D01*
X557784Y241707D01*
Y245364D01*
D02*
G37*
G36*
X418287D02*
X411988D01*
Y239065D01*
X418287D01*
Y245364D01*
D02*
G37*
G36*
X417271Y265887D02*
X353365D01*
Y252781D01*
Y240081D01*
X365049D01*
Y239065D01*
X371348D01*
Y246634D01*
X373888D01*
Y239065D01*
X380187D01*
Y240081D01*
X390449D01*
Y239065D01*
X396748D01*
Y246634D01*
X399288D01*
Y239065D01*
X409448D01*
Y246634D01*
X410718D01*
Y247904D01*
X418287D01*
Y254203D01*
X417271D01*
Y265887D01*
D02*
G37*
G36*
X345642Y240110D02*
X344056Y239794D01*
X342712Y238896D01*
X341814Y237552D01*
X341498Y235966D01*
X341814Y234380D01*
X342712Y233036D01*
X344056Y232138D01*
X345642Y231822D01*
X347228Y232138D01*
X348572Y233036D01*
X349470Y234380D01*
X349785Y235966D01*
X349470Y237552D01*
X348572Y238896D01*
X347228Y239794D01*
X345642Y240110D01*
D02*
G37*
G36*
X77332Y230987D02*
Y227330D01*
X80989D01*
X80848Y228042D01*
X79725Y229722D01*
X78045Y230845D01*
X77332Y230987D01*
D02*
G37*
G36*
X80989Y224790D02*
X77332D01*
Y221133D01*
X78045Y221275D01*
X79725Y222397D01*
X80848Y224078D01*
X80989Y224790D01*
D02*
G37*
G36*
X384048Y227156D02*
X382462Y226840D01*
X381118Y225942D01*
X380220Y224598D01*
X379904Y223012D01*
X380220Y221426D01*
X381118Y220082D01*
X382462Y219184D01*
X384048Y218868D01*
X385634Y219184D01*
X386978Y220082D01*
X387876Y221426D01*
X388192Y223012D01*
X387876Y224598D01*
X386978Y225942D01*
X385634Y226840D01*
X384048Y227156D01*
D02*
G37*
G36*
X103142Y225124D02*
X101557Y224808D01*
X100212Y223910D01*
X99314Y222566D01*
X98999Y220980D01*
X99314Y219394D01*
X100212Y218050D01*
X101557Y217152D01*
X103142Y216836D01*
X104728Y217152D01*
X106072Y218050D01*
X106970Y219394D01*
X107286Y220980D01*
X106970Y222566D01*
X106072Y223910D01*
X104728Y224808D01*
X103142Y225124D01*
D02*
G37*
G36*
X450088Y217250D02*
X448502Y216934D01*
X447158Y216036D01*
X446260Y214692D01*
X445944Y213106D01*
X446260Y211520D01*
X447158Y210176D01*
X448502Y209278D01*
X450088Y208962D01*
X451674Y209278D01*
X453018Y210176D01*
X453916Y211520D01*
X454232Y213106D01*
X453916Y214692D01*
X453018Y216036D01*
X451674Y216934D01*
X450088Y217250D01*
D02*
G37*
G36*
X532892Y215980D02*
X531306Y215664D01*
X529962Y214766D01*
X529064Y213422D01*
X528748Y211836D01*
X529064Y210250D01*
X529962Y208906D01*
X531306Y208008D01*
X532892Y207692D01*
X534478Y208008D01*
X535822Y208906D01*
X536720Y210250D01*
X537036Y211836D01*
X536720Y213422D01*
X535822Y214766D01*
X534478Y215664D01*
X532892Y215980D01*
D02*
G37*
G36*
X399796Y212932D02*
X398210Y212616D01*
X396866Y211718D01*
X395968Y210374D01*
X395652Y208788D01*
X395968Y207202D01*
X396866Y205858D01*
X398210Y204960D01*
X399796Y204644D01*
X401382Y204960D01*
X402726Y205858D01*
X403624Y207202D01*
X403940Y208788D01*
X403624Y210374D01*
X402726Y211718D01*
X401382Y212616D01*
X399796Y212932D01*
D02*
G37*
G36*
X578104Y204593D02*
Y200936D01*
X581761D01*
X581619Y201648D01*
X580496Y203328D01*
X578816Y204451D01*
X578104Y204593D01*
D02*
G37*
G36*
X575564D02*
X574852Y204451D01*
X573172Y203328D01*
X572049Y201648D01*
X571907Y200936D01*
X575564D01*
Y204593D01*
D02*
G37*
G36*
X89916Y204063D02*
Y200406D01*
X93573D01*
X93431Y201118D01*
X92309Y202799D01*
X90628Y203921D01*
X89916Y204063D01*
D02*
G37*
G36*
X87376D02*
X86664Y203921D01*
X84984Y202799D01*
X83861Y201118D01*
X83719Y200406D01*
X87376D01*
Y204063D01*
D02*
G37*
G36*
X581761Y198396D02*
X578104D01*
Y194739D01*
X578816Y194881D01*
X580496Y196003D01*
X581619Y197684D01*
X581761Y198396D01*
D02*
G37*
G36*
X575564D02*
X571907D01*
X572049Y197684D01*
X573172Y196003D01*
X574852Y194881D01*
X575564Y194739D01*
Y198396D01*
D02*
G37*
G36*
X477774Y202772D02*
X476188Y202456D01*
X474844Y201558D01*
X473946Y200214D01*
X473630Y198628D01*
X473946Y197042D01*
X474844Y195698D01*
X476188Y194800D01*
X477774Y194484D01*
X479360Y194800D01*
X480704Y195698D01*
X481602Y197042D01*
X481918Y198628D01*
X481602Y200214D01*
X480704Y201558D01*
X479360Y202456D01*
X477774Y202772D01*
D02*
G37*
G36*
X303022D02*
X301436Y202456D01*
X300092Y201558D01*
X299194Y200214D01*
X298878Y198628D01*
X299194Y197042D01*
X300092Y195698D01*
X301436Y194800D01*
X303022Y194484D01*
X304608Y194800D01*
X305952Y195698D01*
X306850Y197042D01*
X307166Y198628D01*
X306850Y200214D01*
X305952Y201558D01*
X304608Y202456D01*
X303022Y202772D01*
D02*
G37*
G36*
X93573Y197866D02*
X89916D01*
Y194209D01*
X90628Y194351D01*
X92309Y195473D01*
X93431Y197154D01*
X93573Y197866D01*
D02*
G37*
G36*
X87376D02*
X83719D01*
X83861Y197154D01*
X84984Y195473D01*
X86664Y194351D01*
X87376Y194209D01*
Y197866D01*
D02*
G37*
G36*
X210058Y199470D02*
X208472Y199154D01*
X207128Y198256D01*
X206230Y196912D01*
X205914Y195326D01*
X206230Y193740D01*
X207128Y192396D01*
X208472Y191498D01*
X210058Y191182D01*
X211644Y191498D01*
X212988Y192396D01*
X213886Y193740D01*
X214202Y195326D01*
X213886Y196912D01*
X212988Y198256D01*
X211644Y199154D01*
X210058Y199470D01*
D02*
G37*
G36*
X76316Y193649D02*
Y189992D01*
X79973D01*
X79832Y190704D01*
X78709Y192384D01*
X77028Y193507D01*
X76316Y193649D01*
D02*
G37*
G36*
X541020Y190601D02*
Y186944D01*
X544677D01*
X544535Y187656D01*
X543413Y189336D01*
X541732Y190459D01*
X541020Y190601D01*
D02*
G37*
G36*
X538480D02*
X537768Y190459D01*
X536087Y189336D01*
X534965Y187656D01*
X534823Y186944D01*
X538480D01*
Y190601D01*
D02*
G37*
G36*
X410210Y194644D02*
X408624Y194328D01*
X407280Y193430D01*
X406382Y192086D01*
X406066Y190500D01*
X406382Y188914D01*
X407280Y187570D01*
X408624Y186672D01*
X410210Y186356D01*
X411796Y186672D01*
X413140Y187570D01*
X414038Y188914D01*
X414354Y190500D01*
X414038Y192086D01*
X413140Y193430D01*
X411796Y194328D01*
X410210Y194644D01*
D02*
G37*
G36*
X79973Y187452D02*
X76316D01*
Y183795D01*
X77028Y183937D01*
X78709Y185060D01*
X79832Y186740D01*
X79973Y187452D01*
D02*
G37*
G36*
X464820Y190326D02*
X463234Y190010D01*
X461890Y189112D01*
X460992Y187768D01*
X460676Y186182D01*
X460992Y184596D01*
X461890Y183252D01*
X463234Y182354D01*
X464820Y182038D01*
X466406Y182354D01*
X467750Y183252D01*
X468648Y184596D01*
X468964Y186182D01*
X468648Y187768D01*
X467750Y189112D01*
X466406Y190010D01*
X464820Y190326D01*
D02*
G37*
G36*
X380492Y185521D02*
Y181864D01*
X384149D01*
X384007Y182576D01*
X382884Y184256D01*
X381204Y185379D01*
X380492Y185521D01*
D02*
G37*
G36*
X377952D02*
X377240Y185379D01*
X375560Y184256D01*
X374437Y182576D01*
X374295Y181864D01*
X377952D01*
Y185521D01*
D02*
G37*
G36*
X555116Y189818D02*
X553530Y189502D01*
X552186Y188604D01*
X551288Y187260D01*
X550972Y185674D01*
X551288Y184088D01*
X552186Y182744D01*
X553530Y181846D01*
X555116Y181530D01*
X556702Y181846D01*
X558046Y182744D01*
X558944Y184088D01*
X559260Y185674D01*
X558944Y187260D01*
X558046Y188604D01*
X556702Y189502D01*
X555116Y189818D01*
D02*
G37*
G36*
X544677Y184404D02*
X541020D01*
Y180747D01*
X541732Y180889D01*
X543413Y182012D01*
X544535Y183692D01*
X544677Y184404D01*
D02*
G37*
G36*
X538480D02*
X534823D01*
X534965Y183692D01*
X536087Y182012D01*
X537768Y180889D01*
X538480Y180747D01*
Y184404D01*
D02*
G37*
G36*
X384149Y179324D02*
X380492D01*
Y175667D01*
X381204Y175809D01*
X382884Y176931D01*
X384007Y178612D01*
X384149Y179324D01*
D02*
G37*
G36*
X377952D02*
X374295D01*
X374437Y178612D01*
X375560Y176931D01*
X377240Y175809D01*
X377952Y175667D01*
Y179324D01*
D02*
G37*
G36*
X511182Y180420D02*
X509596Y180104D01*
X508252Y179206D01*
X507354Y177862D01*
X507038Y176276D01*
X507354Y174690D01*
X508252Y173346D01*
X509596Y172448D01*
X511182Y172132D01*
X512768Y172448D01*
X514112Y173346D01*
X515010Y174690D01*
X515326Y176276D01*
X515010Y177862D01*
X514112Y179206D01*
X512768Y180104D01*
X511182Y180420D01*
D02*
G37*
G36*
X454660Y177880D02*
X453074Y177564D01*
X451730Y176666D01*
X450832Y175322D01*
X450516Y173736D01*
X450832Y172150D01*
X451730Y170806D01*
X453074Y169908D01*
X454660Y169592D01*
X456246Y169908D01*
X457590Y170806D01*
X458488Y172150D01*
X458804Y173736D01*
X458488Y175322D01*
X457590Y176666D01*
X456246Y177564D01*
X454660Y177880D01*
D02*
G37*
G36*
X282956Y171297D02*
Y167640D01*
X286613D01*
X286471Y168352D01*
X285348Y170033D01*
X283668Y171155D01*
X282956Y171297D01*
D02*
G37*
G36*
X280416D02*
X279704Y171155D01*
X278023Y170033D01*
X276901Y168352D01*
X276759Y167640D01*
X280416D01*
Y171297D01*
D02*
G37*
G36*
X198374Y169265D02*
Y165608D01*
X202031D01*
X201889Y166320D01*
X200767Y168001D01*
X199086Y169123D01*
X198374Y169265D01*
D02*
G37*
G36*
X195834D02*
X195122Y169123D01*
X193442Y168001D01*
X192319Y166320D01*
X192177Y165608D01*
X195834D01*
Y169265D01*
D02*
G37*
G36*
X221742Y170260D02*
X220156Y169944D01*
X218812Y169046D01*
X217914Y167702D01*
X217598Y166116D01*
X217914Y164530D01*
X218812Y163186D01*
X220156Y162288D01*
X221742Y161972D01*
X223328Y162288D01*
X224672Y163186D01*
X225570Y164530D01*
X225886Y166116D01*
X225570Y167702D01*
X224672Y169046D01*
X223328Y169944D01*
X221742Y170260D01*
D02*
G37*
G36*
X76708Y165602D02*
Y161945D01*
X80365D01*
X80223Y162658D01*
X79100Y164338D01*
X77420Y165461D01*
X76708Y165602D01*
D02*
G37*
G36*
X173482Y169752D02*
X171896Y169436D01*
X170552Y168538D01*
X169654Y167194D01*
X169338Y165608D01*
X169654Y164022D01*
X170552Y162678D01*
X171896Y161780D01*
X173482Y161464D01*
X175068Y161780D01*
X176412Y162678D01*
X177310Y164022D01*
X177626Y165608D01*
X177310Y167194D01*
X176412Y168538D01*
X175068Y169436D01*
X173482Y169752D01*
D02*
G37*
G36*
X286613Y165100D02*
X282956D01*
Y161443D01*
X283668Y161585D01*
X285348Y162708D01*
X286471Y164388D01*
X286613Y165100D01*
D02*
G37*
G36*
X280416D02*
X276759D01*
X276901Y164388D01*
X278023Y162708D01*
X279704Y161585D01*
X280416Y161443D01*
Y165100D01*
D02*
G37*
G36*
X202031Y163068D02*
X198374D01*
Y159411D01*
X199086Y159553D01*
X200767Y160676D01*
X201889Y162356D01*
X202031Y163068D01*
D02*
G37*
G36*
X195834D02*
X192177D01*
X192319Y162356D01*
X193442Y160676D01*
X195122Y159553D01*
X195834Y159411D01*
Y163068D01*
D02*
G37*
G36*
X144526Y166704D02*
X142940Y166388D01*
X141596Y165490D01*
X140698Y164146D01*
X140382Y162560D01*
X140698Y160974D01*
X141596Y159630D01*
X142940Y158732D01*
X144526Y158416D01*
X146112Y158732D01*
X147456Y159630D01*
X148354Y160974D01*
X148670Y162560D01*
X148354Y164146D01*
X147456Y165490D01*
X146112Y166388D01*
X144526Y166704D01*
D02*
G37*
G36*
X307848Y171276D02*
X306262Y170960D01*
X304918Y170062D01*
X304020Y168718D01*
X303704Y167132D01*
X304020Y165546D01*
X304918Y164202D01*
X306262Y163304D01*
X307332Y163091D01*
Y161796D01*
X307136Y161757D01*
X305455Y160634D01*
X304333Y158954D01*
X304191Y158242D01*
X314045D01*
X313903Y158954D01*
X312780Y160634D01*
X311100Y161757D01*
X309634Y162049D01*
X309484Y162988D01*
X309526Y163365D01*
X310778Y164202D01*
X311676Y165546D01*
X311992Y167132D01*
X311676Y168718D01*
X310778Y170062D01*
X309434Y170960D01*
X307848Y171276D01*
D02*
G37*
G36*
X393192Y159867D02*
Y156210D01*
X396849D01*
X396707Y156922D01*
X395584Y158603D01*
X393904Y159725D01*
X393192Y159867D01*
D02*
G37*
G36*
X390652D02*
X389940Y159725D01*
X388260Y158603D01*
X387137Y156922D01*
X386995Y156210D01*
X390652D01*
Y159867D01*
D02*
G37*
G36*
X80365Y159405D02*
X76708D01*
Y155749D01*
X77420Y155890D01*
X79100Y157013D01*
X80223Y158693D01*
X80365Y159405D01*
D02*
G37*
G36*
X420116Y163402D02*
X418530Y163086D01*
X417186Y162188D01*
X416288Y160844D01*
X415972Y159258D01*
X416288Y157672D01*
X417186Y156328D01*
X418530Y155430D01*
X420116Y155114D01*
X421702Y155430D01*
X423046Y156328D01*
X423944Y157672D01*
X424260Y159258D01*
X423944Y160844D01*
X423046Y162188D01*
X421702Y163086D01*
X420116Y163402D01*
D02*
G37*
G36*
X93472Y160862D02*
X91886Y160546D01*
X90542Y159648D01*
X89644Y158304D01*
X89328Y156718D01*
X89644Y155132D01*
X90542Y153788D01*
X91886Y152890D01*
X93472Y152574D01*
X95058Y152890D01*
X96402Y153788D01*
X97300Y155132D01*
X97616Y156718D01*
X97300Y158304D01*
X96402Y159648D01*
X95058Y160546D01*
X93472Y160862D01*
D02*
G37*
G36*
X314045Y155702D02*
X310388D01*
Y152045D01*
X311100Y152187D01*
X312780Y153309D01*
X313903Y154990D01*
X314045Y155702D01*
D02*
G37*
G36*
X307848D02*
X304191D01*
X304333Y154990D01*
X305455Y153309D01*
X307136Y152187D01*
X307848Y152045D01*
Y155702D01*
D02*
G37*
G36*
X396849Y153670D02*
X393192D01*
Y150013D01*
X393904Y150155D01*
X395584Y151278D01*
X396707Y152958D01*
X396849Y153670D01*
D02*
G37*
G36*
X390652D02*
X386995D01*
X387137Y152958D01*
X388260Y151278D01*
X389940Y150155D01*
X390652Y150013D01*
Y153670D01*
D02*
G37*
G36*
X145796Y151739D02*
Y148082D01*
X149453D01*
X149311Y148794D01*
X148188Y150475D01*
X146508Y151597D01*
X145796Y151739D01*
D02*
G37*
G36*
X143256D02*
X142544Y151597D01*
X140864Y150475D01*
X139741Y148794D01*
X139599Y148082D01*
X143256D01*
Y151739D01*
D02*
G37*
G36*
X149453Y145542D02*
X145796D01*
Y141885D01*
X146508Y142027D01*
X148188Y143149D01*
X149311Y144830D01*
X149453Y145542D01*
D02*
G37*
G36*
X143256D02*
X139599D01*
X139741Y144830D01*
X140864Y143149D01*
X142544Y142027D01*
X143256Y141885D01*
Y145542D01*
D02*
G37*
G36*
X335914Y148162D02*
X334328Y147846D01*
X332984Y146948D01*
X332086Y145604D01*
X331770Y144018D01*
X332086Y142432D01*
X332984Y141088D01*
X334328Y140190D01*
X335914Y139874D01*
X337500Y140190D01*
X338844Y141088D01*
X339742Y142432D01*
X340058Y144018D01*
X339742Y145604D01*
X338844Y146948D01*
X337500Y147846D01*
X335914Y148162D01*
D02*
G37*
G36*
X324612Y147400D02*
X323026Y147084D01*
X321682Y146186D01*
X320784Y144842D01*
X320468Y143256D01*
X320784Y141670D01*
X321682Y140326D01*
X323026Y139428D01*
X324612Y139112D01*
X326198Y139428D01*
X327542Y140326D01*
X328440Y141670D01*
X328756Y143256D01*
X328440Y144842D01*
X327542Y146186D01*
X326198Y147084D01*
X324612Y147400D01*
D02*
G37*
G36*
X71475Y136753D02*
Y133096D01*
X75132D01*
X74990Y133808D01*
X73867Y135489D01*
X72187Y136611D01*
X71475Y136753D01*
D02*
G37*
G36*
X75132Y130556D02*
X71475D01*
Y126899D01*
X72187Y127041D01*
X73867Y128163D01*
X74990Y129844D01*
X75132Y130556D01*
D02*
G37*
G36*
X68935D02*
X65278D01*
X65420Y129844D01*
X66542Y128163D01*
X68223Y127041D01*
X68935Y126899D01*
Y130556D01*
D02*
G37*
G36*
X45313Y128270D02*
X41656D01*
Y124613D01*
X42368Y124755D01*
X44049Y125878D01*
X45171Y127558D01*
X45313Y128270D01*
D02*
G37*
G36*
X39116D02*
X35459D01*
X35601Y127558D01*
X36723Y125878D01*
X38404Y124755D01*
X39116Y124613D01*
Y128270D01*
D02*
G37*
G36*
X20421Y128016D02*
X16764D01*
Y124359D01*
X17476Y124501D01*
X19157Y125624D01*
X20279Y127304D01*
X20421Y128016D01*
D02*
G37*
G36*
X578612Y129874D02*
X577026Y129558D01*
X575682Y128660D01*
X574784Y127316D01*
X574468Y125730D01*
X574784Y124144D01*
X575682Y122800D01*
X577026Y121902D01*
X578612Y121586D01*
X580198Y121902D01*
X581542Y122800D01*
X582440Y124144D01*
X582756Y125730D01*
X582440Y127316D01*
X581542Y128660D01*
X580198Y129558D01*
X578612Y129874D01*
D02*
G37*
G36*
X322580Y108448D02*
X320251Y107985D01*
X318277Y106665D01*
X316957Y104691D01*
X316877Y104289D01*
X315583D01*
X315503Y104691D01*
X314183Y106665D01*
X312209Y107985D01*
X309880Y108448D01*
X307551Y107985D01*
X305577Y106665D01*
X304257Y104691D01*
X304177Y104289D01*
X302883D01*
X302803Y104691D01*
X301483Y106665D01*
X299509Y107985D01*
X297180Y108448D01*
X294851Y107985D01*
X292877Y106665D01*
X291557Y104691D01*
X291477Y104289D01*
X290183D01*
X290103Y104691D01*
X288783Y106665D01*
X286809Y107985D01*
X284480Y108448D01*
X282151Y107985D01*
X280177Y106665D01*
X278857Y104691D01*
X278394Y102362D01*
X278857Y100033D01*
X280177Y98059D01*
X282151Y96739D01*
X284480Y96276D01*
X286809Y96739D01*
X288783Y98059D01*
X290103Y100033D01*
X290183Y100435D01*
X291477D01*
X291557Y100033D01*
X292877Y98059D01*
X294851Y96739D01*
X297180Y96276D01*
X299509Y96739D01*
X301483Y98059D01*
X302803Y100033D01*
X302883Y100435D01*
X304177D01*
X304257Y100033D01*
X305577Y98059D01*
X307551Y96739D01*
X309880Y96276D01*
X312209Y96739D01*
X314183Y98059D01*
X315503Y100033D01*
X315583Y100435D01*
X316877D01*
X316957Y100033D01*
X318277Y98059D01*
X320251Y96739D01*
X322580Y96276D01*
X324909Y96739D01*
X326883Y98059D01*
X328203Y100033D01*
X328666Y102362D01*
X328203Y104691D01*
X326883Y106665D01*
X324909Y107985D01*
X322580Y108448D01*
D02*
G37*
G36*
X97962Y107035D02*
Y103378D01*
X101619D01*
X101477Y104090D01*
X100354Y105771D01*
X98674Y106893D01*
X97962Y107035D01*
D02*
G37*
G36*
X95422D02*
X94710Y106893D01*
X93029Y105771D01*
X91907Y104090D01*
X91765Y103378D01*
X95422D01*
Y107035D01*
D02*
G37*
G36*
X101619Y100838D02*
X97962D01*
Y97181D01*
X98674Y97323D01*
X100354Y98446D01*
X101477Y100126D01*
X101619Y100838D01*
D02*
G37*
G36*
X95422D02*
X91765D01*
X91907Y100126D01*
X93029Y98446D01*
X94710Y97323D01*
X95422Y97181D01*
Y100838D01*
D02*
G37*
G36*
X361188Y86265D02*
X359602Y85950D01*
X358258Y85052D01*
X357360Y83707D01*
X357044Y82122D01*
X357360Y80536D01*
X358258Y79192D01*
X359602Y78293D01*
X361188Y77978D01*
X362774Y78293D01*
X364118Y79192D01*
X365016Y80536D01*
X365332Y82122D01*
X365016Y83707D01*
X364118Y85052D01*
X362774Y85950D01*
X361188Y86265D01*
D02*
G37*
G36*
X505460Y82122D02*
X503874Y81806D01*
X502530Y80908D01*
X501632Y79564D01*
X501316Y77978D01*
X501632Y76392D01*
X502530Y75048D01*
X503874Y74150D01*
X505460Y73834D01*
X507046Y74150D01*
X508390Y75048D01*
X509288Y76392D01*
X509604Y77978D01*
X509288Y79564D01*
X508390Y80908D01*
X507046Y81806D01*
X505460Y82122D01*
D02*
G37*
G36*
X301244Y69676D02*
X299658Y69360D01*
X298314Y68462D01*
X297416Y67118D01*
X297100Y65532D01*
X297416Y63946D01*
X298314Y62602D01*
X299658Y61704D01*
X301244Y61388D01*
X302830Y61704D01*
X304174Y62602D01*
X305072Y63946D01*
X305388Y65532D01*
X305072Y67118D01*
X304174Y68462D01*
X302830Y69360D01*
X301244Y69676D01*
D02*
G37*
G36*
X88646Y54203D02*
Y50546D01*
X92303D01*
X92161Y51258D01*
X91039Y52938D01*
X89358Y54061D01*
X88646Y54203D01*
D02*
G37*
G36*
X86106D02*
X85394Y54061D01*
X83714Y52938D01*
X82591Y51258D01*
X82449Y50546D01*
X86106D01*
Y54203D01*
D02*
G37*
G36*
X92303Y48006D02*
X88646D01*
Y44349D01*
X89358Y44491D01*
X91039Y45613D01*
X92161Y47294D01*
X92303Y48006D01*
D02*
G37*
G36*
X86106D02*
X82449D01*
X82591Y47294D01*
X83714Y45613D01*
X85394Y44491D01*
X86106Y44349D01*
Y48006D01*
D02*
G37*
G36*
X298584Y58046D02*
X280536D01*
Y39998D01*
X298584D01*
Y58046D01*
D02*
G37*
G36*
X314960Y58124D02*
X312604Y57814D01*
X310409Y56904D01*
X308524Y55458D01*
X307078Y53573D01*
X306168Y51378D01*
X305858Y49022D01*
X306168Y46666D01*
X307078Y44471D01*
X308524Y42586D01*
X310409Y41140D01*
X312604Y40230D01*
X314960Y39920D01*
X317316Y40230D01*
X319511Y41140D01*
X321396Y42586D01*
X322842Y44471D01*
X323752Y46666D01*
X324062Y49022D01*
X323752Y51378D01*
X322842Y53573D01*
X321396Y55458D01*
X319511Y56904D01*
X317316Y57814D01*
X314960Y58124D01*
D02*
G37*
G36*
X354434Y39423D02*
Y35766D01*
X358091D01*
X357949Y36478D01*
X356827Y38159D01*
X355146Y39281D01*
X354434Y39423D01*
D02*
G37*
G36*
X351894D02*
X351182Y39281D01*
X349501Y38159D01*
X348379Y36478D01*
X348237Y35766D01*
X351894D01*
Y39423D01*
D02*
G37*
G36*
X358091Y33226D02*
X354434D01*
Y29569D01*
X355146Y29711D01*
X356827Y30833D01*
X357949Y32514D01*
X358091Y33226D01*
D02*
G37*
G36*
X351894D02*
X348237D01*
X348379Y32514D01*
X349501Y30833D01*
X351182Y29711D01*
X351894Y29569D01*
Y33226D01*
D02*
G37*
G36*
X497840Y23977D02*
Y20320D01*
X501497D01*
X501355Y21032D01*
X500233Y22713D01*
X498552Y23835D01*
X497840Y23977D01*
D02*
G37*
G36*
X495300D02*
X494588Y23835D01*
X492907Y22713D01*
X491785Y21032D01*
X491643Y20320D01*
X495300D01*
Y23977D01*
D02*
G37*
G36*
X88640Y23621D02*
Y19964D01*
X92297D01*
X92155Y20676D01*
X91032Y22357D01*
X89352Y23479D01*
X88640Y23621D01*
D02*
G37*
G36*
X86100D02*
X85388Y23479D01*
X83707Y22357D01*
X82584Y20676D01*
X82443Y19964D01*
X86100D01*
Y23621D01*
D02*
G37*
G36*
X501497Y17780D02*
X497840D01*
Y14123D01*
X498552Y14265D01*
X500233Y15388D01*
X501355Y17068D01*
X501497Y17780D01*
D02*
G37*
G36*
X495300D02*
X491643D01*
X491785Y17068D01*
X492907Y15388D01*
X494588Y14265D01*
X495300Y14123D01*
Y17780D01*
D02*
G37*
G36*
X92297Y17424D02*
X88640D01*
Y13767D01*
X89352Y13909D01*
X91032Y15031D01*
X92155Y16712D01*
X92297Y17424D01*
D02*
G37*
G36*
X86100D02*
X82443D01*
X82584Y16712D01*
X83707Y15031D01*
X85388Y13909D01*
X86100Y13767D01*
Y17424D01*
D02*
G37*
%LPD*%
D10*
X511182Y176276D02*
X511302D01*
X212294Y540004D02*
Y540208D01*
X212344Y540258D01*
D127*
X210312Y478790D02*
X210566Y479044D01*
D137*
X410718Y246634D02*
D03*
X398018D02*
D03*
X372618D02*
D03*
D140*
X264384Y468884D02*
D03*
X76062Y226060D02*
D03*
X74930Y311912D02*
D03*
X75642Y283464D02*
D03*
Y261112D02*
D03*
X75046Y188722D02*
D03*
X74930Y340360D02*
D03*
X75438Y160676D02*
D03*
X70205Y131826D02*
D03*
X40386Y129540D02*
D03*
X15494Y129286D02*
D03*
X26416Y375049D02*
D03*
X71983Y366522D02*
D03*
X88900Y300228D02*
D03*
X88646Y199136D02*
D03*
X87376Y49276D02*
D03*
X87370Y18694D02*
D03*
X559054Y246634D02*
D03*
X16002Y450088D02*
D03*
X55626Y419354D02*
D03*
X496570Y19050D02*
D03*
X406654Y287020D02*
D03*
X281686Y166370D02*
D03*
X557276Y455422D02*
D03*
X96692Y102108D02*
D03*
X37592Y484378D02*
D03*
X109554Y460104D02*
D03*
X119554Y442104D02*
D03*
Y460104D02*
D03*
Y451104D02*
D03*
X109554Y442104D02*
D03*
Y451104D02*
D03*
X210312Y478790D02*
D03*
X37592Y545592D02*
D03*
X511182Y176276D02*
D03*
X65532Y511556D02*
D03*
X367792Y524002D02*
D03*
X538480Y538226D02*
D03*
X212344Y540258D02*
D03*
X60960Y557784D02*
D03*
X140716Y520446D02*
D03*
X519938Y357124D02*
D03*
X197104Y298958D02*
D03*
X316992Y332994D02*
D03*
X353164Y34496D02*
D03*
X576834Y199666D02*
D03*
X561594Y325882D02*
D03*
X482092Y316738D02*
D03*
X539750Y185674D02*
D03*
X149478Y491094D02*
D03*
X407162Y308610D02*
D03*
X379222Y180594D02*
D03*
X391922Y154940D02*
D03*
X309118Y156972D02*
D03*
X144526Y146812D02*
D03*
X197104Y164338D02*
D03*
M02*
