G04*
G04 #@! TF.GenerationSoftware,Altium Limited,Altium Designer,19.0.10 (269)*
G04*
G04 Layer_Physical_Order=3*
G04 Layer_Color=16440176*
%FSLAX44Y44*%
%MOMM*%
G71*
G01*
G75*
%ADD126C,0.7112*%
%ADD137R,1.0058X1.0058*%
%ADD140C,0.5080*%
G36*
X559282Y585705D02*
X558375Y584008D01*
X557258Y580327D01*
X556881Y576500D01*
X557258Y572673D01*
X558375Y568992D01*
X560188Y565601D01*
X562628Y562628D01*
X565601Y560188D01*
X568992Y558375D01*
X572673Y557258D01*
X576500Y556881D01*
X580327Y557258D01*
X582859Y558027D01*
X584132Y557085D01*
X585417Y42108D01*
X584328Y41454D01*
X584008Y41625D01*
X580327Y42741D01*
X576500Y43118D01*
X572673Y42741D01*
X568992Y41625D01*
X565601Y39812D01*
X562628Y37372D01*
X560188Y34399D01*
X558375Y31008D01*
X557258Y27327D01*
X556881Y23500D01*
X557258Y19673D01*
X558375Y15992D01*
X559985Y12980D01*
X559423Y11710D01*
X40577D01*
X40015Y12980D01*
X41625Y15992D01*
X42741Y19673D01*
X43119Y23500D01*
X42741Y27327D01*
X41625Y31008D01*
X39812Y34399D01*
X37372Y37372D01*
X34399Y39812D01*
X31008Y41625D01*
X27327Y42741D01*
X23500Y43118D01*
X19673Y42741D01*
X15992Y41625D01*
X12601Y39812D01*
X10129Y37784D01*
X8859Y38384D01*
Y134820D01*
X39591D01*
X39716Y133550D01*
X38800Y133368D01*
X37456Y132470D01*
X36558Y131126D01*
X36242Y129540D01*
X36558Y127954D01*
X37456Y126610D01*
X38800Y125712D01*
X40386Y125396D01*
X41972Y125712D01*
X43316Y126610D01*
X44214Y127954D01*
X44530Y129540D01*
X44214Y131126D01*
X43316Y132470D01*
X41972Y133368D01*
X41056Y133550D01*
X41181Y134820D01*
X61000D01*
X61285Y134877D01*
X61574Y134852D01*
X62464Y134952D01*
X63020Y135128D01*
X63598Y135209D01*
X64444Y135505D01*
X64946Y135800D01*
X65490Y136008D01*
X66249Y136484D01*
X66673Y136884D01*
X67158Y137208D01*
X67791Y137842D01*
X68115Y138327D01*
X68516Y138751D01*
X68992Y139510D01*
X69200Y140054D01*
X69496Y140556D01*
X69791Y141402D01*
X69872Y141980D01*
X70048Y142535D01*
X70148Y143426D01*
X70123Y143715D01*
X70180Y144000D01*
Y159771D01*
X71449Y159896D01*
X71610Y159090D01*
X72508Y157746D01*
X73852Y156847D01*
X75438Y156532D01*
X77024Y156847D01*
X78368Y157746D01*
X79266Y159090D01*
X79582Y160676D01*
X79266Y162261D01*
X78368Y163605D01*
X77024Y164504D01*
X75438Y164819D01*
X73852Y164504D01*
X72508Y163605D01*
X71610Y162261D01*
X71449Y161455D01*
X70180Y161580D01*
Y186405D01*
X71449Y186790D01*
X72116Y185792D01*
X73461Y184894D01*
X75046Y184578D01*
X76632Y184894D01*
X77976Y185792D01*
X78875Y187136D01*
X79190Y188722D01*
X78875Y190308D01*
X77976Y191652D01*
X76632Y192550D01*
X75046Y192866D01*
X73461Y192550D01*
X72116Y191652D01*
X71449Y190654D01*
X70180Y191039D01*
X70179Y309421D01*
X71449Y309806D01*
X72000Y308982D01*
X73344Y308084D01*
X74930Y307768D01*
X76516Y308084D01*
X77860Y308982D01*
X78758Y310326D01*
X79074Y311912D01*
X78758Y313498D01*
X77860Y314842D01*
X76516Y315740D01*
X74930Y316056D01*
X73344Y315740D01*
X72000Y314842D01*
X71449Y314018D01*
X70179Y314403D01*
Y337869D01*
X71449Y338254D01*
X72000Y337430D01*
X73344Y336532D01*
X74930Y336216D01*
X76516Y336532D01*
X77860Y337430D01*
X78758Y338774D01*
X79074Y340360D01*
X78758Y341946D01*
X77860Y343290D01*
X76516Y344188D01*
X74930Y344504D01*
X73344Y344188D01*
X72000Y343290D01*
X71449Y342466D01*
X70179Y342851D01*
Y356000D01*
X70123Y356284D01*
X70148Y356574D01*
X70048Y357464D01*
X69872Y358020D01*
X69791Y358597D01*
X69496Y359443D01*
X69200Y359945D01*
X68992Y360490D01*
X68516Y361249D01*
X68115Y361673D01*
X67791Y362158D01*
X67158Y362791D01*
X66673Y363115D01*
X66249Y363515D01*
X65491Y363992D01*
X64946Y364199D01*
X64443Y364495D01*
X63597Y364791D01*
X63020Y364872D01*
X62464Y365048D01*
X61574Y365147D01*
X61285Y365123D01*
X61000Y365179D01*
X8859D01*
Y561616D01*
X10129Y562216D01*
X12601Y560188D01*
X15992Y558375D01*
X19673Y557258D01*
X23500Y556881D01*
X27327Y557258D01*
X31008Y558375D01*
X34399Y560188D01*
X37372Y562628D01*
X39812Y565601D01*
X41625Y568992D01*
X42741Y572673D01*
X43119Y576500D01*
X42741Y580327D01*
X41625Y584008D01*
X41372Y584481D01*
X42024Y585571D01*
X558628Y586794D01*
X559282Y585705D01*
D02*
G37*
%LPC*%
G36*
X60960Y561928D02*
X59374Y561612D01*
X58030Y560714D01*
X57132Y559370D01*
X56816Y557784D01*
X57132Y556198D01*
X58030Y554854D01*
X59374Y553956D01*
X60960Y553640D01*
X62546Y553956D01*
X63890Y554854D01*
X64788Y556198D01*
X65104Y557784D01*
X64788Y559370D01*
X63890Y560714D01*
X62546Y561612D01*
X60960Y561928D01*
D02*
G37*
G36*
X325628Y576888D02*
X322578Y576487D01*
X319736Y575309D01*
X317295Y573436D01*
X315422Y570996D01*
X314245Y568153D01*
X313843Y565103D01*
X314245Y562053D01*
X315422Y559211D01*
X317295Y556770D01*
X319736Y554897D01*
X322578Y553720D01*
X325628Y553318D01*
X328678Y553720D01*
X331520Y554897D01*
X333961Y556770D01*
X335834Y559211D01*
X337011Y562053D01*
X337413Y565103D01*
X337011Y568153D01*
X335834Y570996D01*
X333961Y573436D01*
X331520Y575309D01*
X328678Y576487D01*
X325628Y576888D01*
D02*
G37*
G36*
X274828D02*
X271778Y576487D01*
X268936Y575309D01*
X266495Y573436D01*
X264622Y570996D01*
X263445Y568153D01*
X263043Y565103D01*
X263445Y562053D01*
X264622Y559211D01*
X266495Y556770D01*
X268936Y554897D01*
X271778Y553720D01*
X274828Y553318D01*
X277878Y553720D01*
X280720Y554897D01*
X283161Y556770D01*
X285034Y559211D01*
X286211Y562053D01*
X286613Y565103D01*
X286211Y568153D01*
X285034Y570996D01*
X283161Y573436D01*
X280720Y575309D01*
X277878Y576487D01*
X274828Y576888D01*
D02*
G37*
G36*
X37592Y549736D02*
X36006Y549420D01*
X34662Y548522D01*
X33764Y547178D01*
X33448Y545592D01*
X33764Y544006D01*
X34662Y542662D01*
X36006Y541764D01*
X37592Y541448D01*
X39178Y541764D01*
X40522Y542662D01*
X41420Y544006D01*
X41736Y545592D01*
X41420Y547178D01*
X40522Y548522D01*
X39178Y549420D01*
X37592Y549736D01*
D02*
G37*
G36*
X212344Y544402D02*
X210758Y544086D01*
X209414Y543188D01*
X208516Y541844D01*
X208200Y540258D01*
X208516Y538672D01*
X209414Y537328D01*
X210758Y536430D01*
X212344Y536114D01*
X213930Y536430D01*
X215274Y537328D01*
X216172Y538672D01*
X216488Y540258D01*
X216172Y541844D01*
X215274Y543188D01*
X213930Y544086D01*
X212344Y544402D01*
D02*
G37*
G36*
X538480Y542370D02*
X536894Y542054D01*
X535550Y541156D01*
X534652Y539812D01*
X534336Y538226D01*
X534652Y536640D01*
X535550Y535296D01*
X536894Y534398D01*
X538480Y534082D01*
X540066Y534398D01*
X541410Y535296D01*
X542308Y536640D01*
X542624Y538226D01*
X542308Y539812D01*
X541410Y541156D01*
X540066Y542054D01*
X538480Y542370D01*
D02*
G37*
G36*
X367792Y528146D02*
X366206Y527830D01*
X364862Y526932D01*
X363964Y525588D01*
X363648Y524002D01*
X363964Y522416D01*
X364862Y521072D01*
X366206Y520174D01*
X367792Y519858D01*
X369378Y520174D01*
X370722Y521072D01*
X371620Y522416D01*
X371936Y524002D01*
X371620Y525588D01*
X370722Y526932D01*
X369378Y527830D01*
X367792Y528146D01*
D02*
G37*
G36*
X140716Y524590D02*
X139130Y524274D01*
X137786Y523376D01*
X136888Y522032D01*
X136572Y520446D01*
X136888Y518860D01*
X137786Y517516D01*
X139130Y516618D01*
X140716Y516302D01*
X142302Y516618D01*
X143646Y517516D01*
X144544Y518860D01*
X144860Y520446D01*
X144544Y522032D01*
X143646Y523376D01*
X142302Y524274D01*
X140716Y524590D01*
D02*
G37*
G36*
X65532Y515700D02*
X63946Y515384D01*
X62602Y514486D01*
X61704Y513142D01*
X61388Y511556D01*
X61704Y509970D01*
X62602Y508626D01*
X63946Y507728D01*
X65532Y507412D01*
X67118Y507728D01*
X68462Y508626D01*
X69360Y509970D01*
X69676Y511556D01*
X69360Y513142D01*
X68462Y514486D01*
X67118Y515384D01*
X65532Y515700D01*
D02*
G37*
G36*
X562356Y496671D02*
Y493014D01*
X566013D01*
X565871Y493726D01*
X564748Y495406D01*
X563068Y496529D01*
X562356Y496671D01*
D02*
G37*
G36*
X559816D02*
X559104Y496529D01*
X557424Y495406D01*
X556301Y493726D01*
X556159Y493014D01*
X559816D01*
Y496671D01*
D02*
G37*
G36*
X493522Y499190D02*
X491936Y498874D01*
X490592Y497976D01*
X489694Y496632D01*
X489378Y495046D01*
X489694Y493460D01*
X490592Y492116D01*
X491936Y491218D01*
X493522Y490902D01*
X495108Y491218D01*
X496452Y492116D01*
X497350Y493460D01*
X497666Y495046D01*
X497350Y496632D01*
X496452Y497976D01*
X495108Y498874D01*
X493522Y499190D01*
D02*
G37*
G36*
X149478Y495238D02*
X147892Y494922D01*
X146548Y494024D01*
X145650Y492680D01*
X145334Y491094D01*
X145650Y489508D01*
X146548Y488164D01*
X147892Y487266D01*
X149478Y486950D01*
X151064Y487266D01*
X152408Y488164D01*
X153306Y489508D01*
X153622Y491094D01*
X153306Y492680D01*
X152408Y494024D01*
X151064Y494922D01*
X149478Y495238D01*
D02*
G37*
G36*
X566013Y490474D02*
X562356D01*
Y486817D01*
X563068Y486959D01*
X564748Y488082D01*
X565871Y489762D01*
X566013Y490474D01*
D02*
G37*
G36*
X559816D02*
X556159D01*
X556301Y489762D01*
X557424Y488082D01*
X559104Y486959D01*
X559816Y486817D01*
Y490474D01*
D02*
G37*
G36*
X37592Y488522D02*
X36006Y488206D01*
X34662Y487308D01*
X33764Y485964D01*
X33448Y484378D01*
X33764Y482792D01*
X34662Y481448D01*
X36006Y480550D01*
X37592Y480234D01*
X39178Y480550D01*
X40522Y481448D01*
X41420Y482792D01*
X41736Y484378D01*
X41420Y485964D01*
X40522Y487308D01*
X39178Y488206D01*
X37592Y488522D01*
D02*
G37*
G36*
X210312Y482934D02*
X208726Y482618D01*
X207382Y481720D01*
X206484Y480376D01*
X206168Y478790D01*
X206484Y477204D01*
X207382Y475860D01*
X208726Y474962D01*
X210312Y474646D01*
X211898Y474962D01*
X213242Y475860D01*
X214140Y477204D01*
X214456Y478790D01*
X214140Y480376D01*
X213242Y481720D01*
X211898Y482618D01*
X210312Y482934D01*
D02*
G37*
G36*
X66294Y477346D02*
X64708Y477030D01*
X63364Y476132D01*
X62466Y474788D01*
X62150Y473202D01*
X62466Y471616D01*
X63364Y470272D01*
X64708Y469374D01*
X66294Y469058D01*
X67880Y469374D01*
X69224Y470272D01*
X70122Y471616D01*
X70438Y473202D01*
X70122Y474788D01*
X69224Y476132D01*
X67880Y477030D01*
X66294Y477346D01*
D02*
G37*
G36*
X264384Y473028D02*
X262798Y472712D01*
X261454Y471814D01*
X260556Y470470D01*
X260240Y468884D01*
X260556Y467298D01*
X261454Y465954D01*
X262798Y465056D01*
X264384Y464740D01*
X265970Y465056D01*
X267314Y465954D01*
X268212Y467298D01*
X268528Y468884D01*
X268212Y470470D01*
X267314Y471814D01*
X265970Y472712D01*
X264384Y473028D01*
D02*
G37*
G36*
X143510Y467948D02*
X141924Y467632D01*
X140580Y466734D01*
X139682Y465390D01*
X139366Y463804D01*
X139682Y462218D01*
X140580Y460874D01*
X141924Y459976D01*
X143510Y459660D01*
X145096Y459976D01*
X146440Y460874D01*
X147338Y462218D01*
X147654Y463804D01*
X147338Y465390D01*
X146440Y466734D01*
X145096Y467632D01*
X143510Y467948D01*
D02*
G37*
G36*
X557276Y459566D02*
X555690Y459250D01*
X554346Y458352D01*
X553448Y457008D01*
X553132Y455422D01*
X553448Y453836D01*
X554346Y452492D01*
X555690Y451594D01*
X557276Y451278D01*
X558862Y451594D01*
X560206Y452492D01*
X561104Y453836D01*
X561420Y455422D01*
X561104Y457008D01*
X560206Y458352D01*
X558862Y459250D01*
X557276Y459566D01*
D02*
G37*
G36*
X534670Y450189D02*
Y446532D01*
X538327D01*
X538185Y447244D01*
X537062Y448924D01*
X535382Y450047D01*
X534670Y450189D01*
D02*
G37*
G36*
X532130D02*
X531418Y450047D01*
X529738Y448924D01*
X528615Y447244D01*
X528473Y446532D01*
X532130D01*
Y450189D01*
D02*
G37*
G36*
X141986Y454232D02*
X140400Y453916D01*
X139056Y453018D01*
X138158Y451674D01*
X137842Y450088D01*
X138158Y448502D01*
X139056Y447158D01*
X140400Y446260D01*
X141986Y445944D01*
X143572Y446260D01*
X144916Y447158D01*
X145814Y448502D01*
X146130Y450088D01*
X145814Y451674D01*
X144916Y453018D01*
X143572Y453916D01*
X141986Y454232D01*
D02*
G37*
G36*
X16002D02*
X14416Y453916D01*
X13072Y453018D01*
X12174Y451674D01*
X11858Y450088D01*
X12174Y448502D01*
X13072Y447158D01*
X14416Y446260D01*
X16002Y445944D01*
X17588Y446260D01*
X18932Y447158D01*
X19830Y448502D01*
X20146Y450088D01*
X19830Y451674D01*
X18932Y453018D01*
X17588Y453916D01*
X16002Y454232D01*
D02*
G37*
G36*
X390144Y444419D02*
Y440762D01*
X393801D01*
X393659Y441474D01*
X392537Y443154D01*
X390856Y444277D01*
X390144Y444419D01*
D02*
G37*
G36*
X387604D02*
X386892Y444277D01*
X385211Y443154D01*
X384089Y441474D01*
X383947Y440762D01*
X387604D01*
Y444419D01*
D02*
G37*
G36*
X538327Y443992D02*
X534670D01*
Y440335D01*
X535382Y440477D01*
X537062Y441600D01*
X538185Y443280D01*
X538327Y443992D01*
D02*
G37*
G36*
X532130D02*
X528473D01*
X528615Y443280D01*
X529738Y441600D01*
X531418Y440477D01*
X532130Y440335D01*
Y443992D01*
D02*
G37*
G36*
X119554Y464248D02*
X117968Y463932D01*
X116624Y463034D01*
X115726Y461690D01*
X115410Y460104D01*
X115726Y458518D01*
X116624Y457174D01*
X117968Y456276D01*
X118091Y456251D01*
Y454957D01*
X117968Y454932D01*
X116624Y454034D01*
X115726Y452690D01*
X115410Y451104D01*
X115726Y449518D01*
X116624Y448174D01*
X117968Y447276D01*
X118091Y447251D01*
Y445957D01*
X117968Y445932D01*
X116624Y445034D01*
X115726Y443690D01*
X115410Y442104D01*
X115726Y440518D01*
X116624Y439174D01*
X117968Y438276D01*
X119554Y437960D01*
X121140Y438276D01*
X122484Y439174D01*
X123382Y440518D01*
X123698Y442104D01*
X123382Y443690D01*
X122484Y445034D01*
X121140Y445932D01*
X121017Y445957D01*
Y447251D01*
X121140Y447276D01*
X122484Y448174D01*
X123382Y449518D01*
X123698Y451104D01*
X123382Y452690D01*
X122484Y454034D01*
X121140Y454932D01*
X121017Y454957D01*
Y456251D01*
X121140Y456276D01*
X122484Y457174D01*
X123382Y458518D01*
X123698Y460104D01*
X123382Y461690D01*
X122484Y463034D01*
X121140Y463932D01*
X119554Y464248D01*
D02*
G37*
G36*
X109554D02*
X107968Y463932D01*
X106624Y463034D01*
X105726Y461690D01*
X105410Y460104D01*
X105726Y458518D01*
X106624Y457174D01*
X107968Y456276D01*
X108091Y456251D01*
Y454957D01*
X107968Y454932D01*
X106624Y454034D01*
X105726Y452690D01*
X105410Y451104D01*
X105726Y449518D01*
X106624Y448174D01*
X107968Y447276D01*
X108091Y447251D01*
Y445957D01*
X107968Y445932D01*
X106624Y445034D01*
X105726Y443690D01*
X105410Y442104D01*
X105726Y440518D01*
X106624Y439174D01*
X107968Y438276D01*
X109554Y437960D01*
X111140Y438276D01*
X112484Y439174D01*
X113382Y440518D01*
X113698Y442104D01*
X113382Y443690D01*
X112484Y445034D01*
X111140Y445932D01*
X111017Y445957D01*
Y447251D01*
X111140Y447276D01*
X112484Y448174D01*
X113382Y449518D01*
X113698Y451104D01*
X113382Y452690D01*
X112484Y454034D01*
X111140Y454932D01*
X111017Y454957D01*
Y456251D01*
X111140Y456276D01*
X112484Y457174D01*
X113382Y458518D01*
X113698Y460104D01*
X113382Y461690D01*
X112484Y463034D01*
X111140Y463932D01*
X109554Y464248D01*
D02*
G37*
G36*
X141119Y444072D02*
X139533Y443756D01*
X138189Y442858D01*
X137290Y441514D01*
X136975Y439928D01*
X137290Y438342D01*
X138189Y436998D01*
X139533Y436100D01*
X141119Y435784D01*
X142704Y436100D01*
X144049Y436998D01*
X144947Y438342D01*
X145262Y439928D01*
X144947Y441514D01*
X144049Y442858D01*
X142704Y443756D01*
X141119Y444072D01*
D02*
G37*
G36*
X393801Y438222D02*
X390144D01*
Y434565D01*
X390856Y434707D01*
X392537Y435830D01*
X393659Y437510D01*
X393801Y438222D01*
D02*
G37*
G36*
X387604D02*
X383947D01*
X384089Y437510D01*
X385211Y435830D01*
X386892Y434707D01*
X387604Y434565D01*
Y438222D01*
D02*
G37*
G36*
X301244Y440151D02*
X299280Y439892D01*
X297449Y439134D01*
X295878Y437928D01*
X294672Y436357D01*
X293914Y434526D01*
X293655Y432562D01*
X293914Y430598D01*
X294672Y428768D01*
X295878Y427196D01*
X297449Y425990D01*
X299280Y425232D01*
X301244Y424973D01*
X303208Y425232D01*
X305039Y425990D01*
X306610Y427196D01*
X307816Y428768D01*
X308574Y430598D01*
X308833Y432562D01*
X308574Y434526D01*
X307816Y436357D01*
X306610Y437928D01*
X305039Y439134D01*
X303208Y439892D01*
X301244Y440151D01*
D02*
G37*
G36*
X55626Y423498D02*
X54040Y423182D01*
X52696Y422284D01*
X51798Y420940D01*
X51482Y419354D01*
X51798Y417768D01*
X52696Y416424D01*
X54040Y415526D01*
X55626Y415210D01*
X57212Y415526D01*
X58556Y416424D01*
X59454Y417768D01*
X59770Y419354D01*
X59454Y420940D01*
X58556Y422284D01*
X57212Y423182D01*
X55626Y423498D01*
D02*
G37*
G36*
X433070Y401400D02*
X431484Y401084D01*
X430140Y400186D01*
X429242Y398842D01*
X428926Y397256D01*
X429242Y395670D01*
X430140Y394326D01*
X431484Y393428D01*
X433070Y393112D01*
X434656Y393428D01*
X436000Y394326D01*
X436898Y395670D01*
X437214Y397256D01*
X436898Y398842D01*
X436000Y400186D01*
X434656Y401084D01*
X433070Y401400D01*
D02*
G37*
G36*
X22336Y390245D02*
Y386588D01*
X25993D01*
X25851Y387300D01*
X24729Y388980D01*
X23048Y390103D01*
X22336Y390245D01*
D02*
G37*
G36*
X19796D02*
X19084Y390103D01*
X17404Y388980D01*
X16281Y387300D01*
X16139Y386588D01*
X19796D01*
Y390245D01*
D02*
G37*
G36*
X244856Y389970D02*
X243270Y389654D01*
X241926Y388756D01*
X241028Y387412D01*
X240712Y385826D01*
X241028Y384240D01*
X241926Y382896D01*
X243270Y381998D01*
X244856Y381682D01*
X246442Y381998D01*
X247786Y382896D01*
X248684Y384240D01*
X249000Y385826D01*
X248684Y387412D01*
X247786Y388756D01*
X246442Y389654D01*
X244856Y389970D01*
D02*
G37*
G36*
X25993Y384048D02*
X22336D01*
Y380391D01*
X23048Y380533D01*
X24729Y381656D01*
X25851Y383336D01*
X25993Y384048D01*
D02*
G37*
G36*
X19796D02*
X16139D01*
X16281Y383336D01*
X17404Y381656D01*
X19084Y380533D01*
X19796Y380391D01*
Y384048D01*
D02*
G37*
G36*
X94234Y380867D02*
X93125Y380646D01*
X91109Y379299D01*
X90515D01*
X88498Y380646D01*
X87390Y380867D01*
Y374904D01*
Y368941D01*
X88498Y369162D01*
X90515Y370509D01*
X91109D01*
X93125Y369162D01*
X94234Y368941D01*
Y374904D01*
Y380867D01*
D02*
G37*
G36*
X66769Y381012D02*
X65661Y380791D01*
X63644Y379444D01*
X62297Y377427D01*
X62076Y376319D01*
X66769D01*
Y381012D01*
D02*
G37*
G36*
X96774Y380867D02*
Y376174D01*
X101467D01*
X101246Y377282D01*
X99899Y379299D01*
X97882Y380646D01*
X96774Y380867D01*
D02*
G37*
G36*
X283368Y389286D02*
X268320D01*
Y374238D01*
X283368D01*
Y389286D01*
D02*
G37*
G36*
X326644Y389351D02*
X324680Y389092D01*
X322850Y388334D01*
X321278Y387128D01*
X320072Y385556D01*
X319314Y383726D01*
X319055Y381762D01*
X319314Y379798D01*
X320072Y377967D01*
X321278Y376396D01*
X322850Y375190D01*
X324680Y374432D01*
X326644Y374173D01*
X328608Y374432D01*
X330438Y375190D01*
X332010Y376396D01*
X333216Y377967D01*
X333974Y379798D01*
X334233Y381762D01*
X333974Y383726D01*
X333216Y385556D01*
X332010Y387128D01*
X330438Y388334D01*
X328608Y389092D01*
X326644Y389351D01*
D02*
G37*
G36*
X26416Y379193D02*
X24830Y378877D01*
X23486Y377979D01*
X22588Y376635D01*
X22272Y375049D01*
X22588Y373463D01*
X23486Y372119D01*
X24830Y371221D01*
X26416Y370905D01*
X28002Y371221D01*
X29346Y372119D01*
X30244Y373463D01*
X30560Y375049D01*
X30244Y376635D01*
X29346Y377979D01*
X28002Y378877D01*
X26416Y379193D01*
D02*
G37*
G36*
X101467Y373634D02*
X96774D01*
Y368941D01*
X97882Y369162D01*
X99899Y370509D01*
X101246Y372525D01*
X101467Y373634D01*
D02*
G37*
G36*
X69309Y381012D02*
Y375049D01*
X68039D01*
Y373779D01*
X62076D01*
X62297Y372671D01*
X63644Y370654D01*
X65661Y369307D01*
X67221Y368996D01*
X68050Y368207D01*
X68060Y367633D01*
X67839Y366522D01*
X68155Y364936D01*
X69053Y363592D01*
X70397Y362694D01*
X71983Y362378D01*
X73569Y362694D01*
X74913Y363592D01*
X75811Y364936D01*
X76126Y366522D01*
X75922Y367550D01*
X76632Y368579D01*
X76885Y368724D01*
X79086Y369162D01*
X81103Y370509D01*
X81725D01*
X83742Y369162D01*
X84850Y368941D01*
Y374904D01*
Y380867D01*
X83742Y380646D01*
X81725Y379299D01*
X81103D01*
X79086Y380646D01*
X77978Y380867D01*
Y374904D01*
X75438D01*
Y380867D01*
X74330Y380646D01*
X72464Y379400D01*
X72434Y379444D01*
X70417Y380791D01*
X69309Y381012D01*
D02*
G37*
G36*
X316230Y370920D02*
X314644Y370604D01*
X313300Y369706D01*
X312402Y368362D01*
X312086Y366776D01*
X312402Y365190D01*
X313300Y363846D01*
X314644Y362948D01*
X316230Y362632D01*
X317816Y362948D01*
X319160Y363846D01*
X320058Y365190D01*
X320374Y366776D01*
X320058Y368362D01*
X319160Y369706D01*
X317816Y370604D01*
X316230Y370920D01*
D02*
G37*
G36*
X413240Y364824D02*
X411655Y364508D01*
X410310Y363610D01*
X409412Y362266D01*
X409097Y360680D01*
X409412Y359094D01*
X410310Y357750D01*
X411655Y356852D01*
X413240Y356536D01*
X414826Y356852D01*
X416170Y357750D01*
X417069Y359094D01*
X417384Y360680D01*
X417069Y362266D01*
X416170Y363610D01*
X414826Y364508D01*
X413240Y364824D01*
D02*
G37*
G36*
X519938Y361268D02*
X518352Y360952D01*
X517008Y360054D01*
X516110Y358710D01*
X515794Y357124D01*
X516110Y355538D01*
X517008Y354194D01*
X518352Y353296D01*
X519938Y352980D01*
X521524Y353296D01*
X522868Y354194D01*
X523766Y355538D01*
X524082Y357124D01*
X523766Y358710D01*
X522868Y360054D01*
X521524Y360952D01*
X519938Y361268D01*
D02*
G37*
G36*
X102108Y355680D02*
X100522Y355364D01*
X99178Y354466D01*
X98280Y353122D01*
X97964Y351536D01*
X98280Y349950D01*
X99178Y348606D01*
X100522Y347708D01*
X102108Y347392D01*
X103694Y347708D01*
X105038Y348606D01*
X105936Y349950D01*
X106252Y351536D01*
X105936Y353122D01*
X105038Y354466D01*
X103694Y355364D01*
X102108Y355680D01*
D02*
G37*
G36*
X243586Y354156D02*
X242000Y353840D01*
X240656Y352942D01*
X239758Y351598D01*
X239442Y350012D01*
X239758Y348426D01*
X240656Y347082D01*
X242000Y346184D01*
X243586Y345868D01*
X245172Y346184D01*
X246516Y347082D01*
X247414Y348426D01*
X247730Y350012D01*
X247414Y351598D01*
X246516Y352942D01*
X245172Y353840D01*
X243586Y354156D01*
D02*
G37*
G36*
X184658Y351108D02*
X183072Y350792D01*
X181728Y349894D01*
X180830Y348550D01*
X180514Y346964D01*
X180830Y345378D01*
X181728Y344034D01*
X183072Y343136D01*
X184658Y342820D01*
X186244Y343136D01*
X187588Y344034D01*
X188486Y345378D01*
X188802Y346964D01*
X188486Y348550D01*
X187588Y349894D01*
X186244Y350792D01*
X184658Y351108D01*
D02*
G37*
G36*
X350520Y347298D02*
X348934Y346982D01*
X347590Y346084D01*
X346692Y344740D01*
X346376Y343154D01*
X346692Y341568D01*
X347590Y340224D01*
X348934Y339326D01*
X350520Y339010D01*
X352106Y339326D01*
X353450Y340224D01*
X354348Y341568D01*
X354664Y343154D01*
X354348Y344740D01*
X353450Y346084D01*
X352106Y346982D01*
X350520Y347298D01*
D02*
G37*
G36*
X173990Y343742D02*
X172404Y343426D01*
X171060Y342528D01*
X170162Y341184D01*
X169846Y339598D01*
X170162Y338012D01*
X171060Y336668D01*
X172404Y335770D01*
X173990Y335454D01*
X175576Y335770D01*
X176920Y336668D01*
X177818Y338012D01*
X178134Y339598D01*
X177818Y341184D01*
X176920Y342528D01*
X175576Y343426D01*
X173990Y343742D01*
D02*
G37*
G36*
X211208Y349892D02*
X193160D01*
Y331844D01*
X211208D01*
Y349892D01*
D02*
G37*
G36*
X140088D02*
X122040D01*
Y331844D01*
X140088D01*
Y349892D01*
D02*
G37*
G36*
X227584Y349970D02*
X225228Y349660D01*
X223033Y348750D01*
X221148Y347304D01*
X219702Y345419D01*
X218792Y343224D01*
X218482Y340868D01*
X218792Y338512D01*
X219702Y336317D01*
X221148Y334432D01*
X223033Y332986D01*
X225228Y332076D01*
X227584Y331766D01*
X229940Y332076D01*
X232135Y332986D01*
X234020Y334432D01*
X235466Y336317D01*
X236376Y338512D01*
X236686Y340868D01*
X236376Y343224D01*
X235466Y345419D01*
X234020Y347304D01*
X232135Y348750D01*
X229940Y349660D01*
X227584Y349970D01*
D02*
G37*
G36*
X156464D02*
X154108Y349660D01*
X151913Y348750D01*
X150028Y347304D01*
X148582Y345419D01*
X147672Y343224D01*
X147362Y340868D01*
X147672Y338512D01*
X148582Y336317D01*
X150028Y334432D01*
X151913Y332986D01*
X154108Y332076D01*
X156464Y331766D01*
X158820Y332076D01*
X161015Y332986D01*
X162900Y334432D01*
X164346Y336317D01*
X165256Y338512D01*
X165566Y340868D01*
X165256Y343224D01*
X164346Y345419D01*
X162900Y347304D01*
X161015Y348750D01*
X158820Y349660D01*
X156464Y349970D01*
D02*
G37*
G36*
X316992Y337138D02*
X315406Y336822D01*
X314062Y335924D01*
X313164Y334580D01*
X312848Y332994D01*
X313164Y331408D01*
X314062Y330064D01*
X315406Y329166D01*
X316992Y328850D01*
X318578Y329166D01*
X319922Y330064D01*
X320820Y331408D01*
X321136Y332994D01*
X320820Y334580D01*
X319922Y335924D01*
X318578Y336822D01*
X316992Y337138D01*
D02*
G37*
G36*
X293408Y335868D02*
X291822Y335552D01*
X290478Y334654D01*
X289580Y333310D01*
X289264Y331724D01*
X289580Y330138D01*
X290478Y328794D01*
X291822Y327896D01*
X293408Y327580D01*
X294994Y327896D01*
X296338Y328794D01*
X297236Y330138D01*
X297552Y331724D01*
X297236Y333310D01*
X296338Y334654D01*
X294994Y335552D01*
X293408Y335868D01*
D02*
G37*
G36*
X249428Y333074D02*
X247842Y332758D01*
X246498Y331860D01*
X245600Y330516D01*
X245284Y328930D01*
X245600Y327344D01*
X246498Y326000D01*
X247842Y325102D01*
X249428Y324786D01*
X251014Y325102D01*
X252358Y326000D01*
X253256Y327344D01*
X253572Y328930D01*
X253256Y330516D01*
X252358Y331860D01*
X251014Y332758D01*
X249428Y333074D01*
D02*
G37*
G36*
X504190Y331296D02*
X502604Y330980D01*
X501260Y330082D01*
X500362Y328738D01*
X500046Y327152D01*
X500362Y325566D01*
X501260Y324222D01*
X502604Y323324D01*
X504190Y323008D01*
X505776Y323324D01*
X507120Y324222D01*
X508018Y325566D01*
X508334Y327152D01*
X508018Y328738D01*
X507120Y330082D01*
X505776Y330980D01*
X504190Y331296D01*
D02*
G37*
G36*
X561594Y330026D02*
X560008Y329710D01*
X558664Y328812D01*
X557766Y327468D01*
X557450Y325882D01*
X557766Y324296D01*
X558664Y322952D01*
X560008Y322054D01*
X561594Y321738D01*
X563180Y322054D01*
X564524Y322952D01*
X565422Y324296D01*
X565738Y325882D01*
X565422Y327468D01*
X564524Y328812D01*
X563180Y329710D01*
X561594Y330026D01*
D02*
G37*
G36*
X359410Y329010D02*
X357824Y328694D01*
X356480Y327796D01*
X355582Y326452D01*
X355266Y324866D01*
X355582Y323280D01*
X356480Y321936D01*
X357824Y321038D01*
X359410Y320722D01*
X360996Y321038D01*
X362340Y321936D01*
X363238Y323280D01*
X363554Y324866D01*
X363238Y326452D01*
X362340Y327796D01*
X360996Y328694D01*
X359410Y329010D01*
D02*
G37*
G36*
X482092Y320882D02*
X480506Y320566D01*
X479162Y319668D01*
X478264Y318324D01*
X477948Y316738D01*
X478264Y315152D01*
X479162Y313808D01*
X480506Y312910D01*
X482092Y312594D01*
X483678Y312910D01*
X485022Y313808D01*
X485920Y315152D01*
X486236Y316738D01*
X485920Y318324D01*
X485022Y319668D01*
X483678Y320566D01*
X482092Y320882D01*
D02*
G37*
G36*
X418084Y313008D02*
X416498Y312692D01*
X415154Y311794D01*
X414256Y310450D01*
X413940Y308864D01*
X414256Y307278D01*
X415154Y305934D01*
X416498Y305036D01*
X418084Y304720D01*
X419670Y305036D01*
X421014Y305934D01*
X421912Y307278D01*
X422228Y308864D01*
X421912Y310450D01*
X421014Y311794D01*
X419670Y312692D01*
X418084Y313008D01*
D02*
G37*
G36*
X407162Y312754D02*
X405576Y312438D01*
X404232Y311540D01*
X403334Y310196D01*
X403018Y308610D01*
X403334Y307024D01*
X404232Y305680D01*
X405576Y304782D01*
X407162Y304466D01*
X408748Y304782D01*
X410092Y305680D01*
X410990Y307024D01*
X411306Y308610D01*
X410990Y310196D01*
X410092Y311540D01*
X408748Y312438D01*
X407162Y312754D01*
D02*
G37*
G36*
X88900Y304372D02*
X87314Y304056D01*
X85970Y303158D01*
X85072Y301814D01*
X84756Y300228D01*
X85072Y298642D01*
X85970Y297298D01*
X87314Y296400D01*
X88900Y296084D01*
X90486Y296400D01*
X91830Y297298D01*
X92728Y298642D01*
X93044Y300228D01*
X92728Y301814D01*
X91830Y303158D01*
X90486Y304056D01*
X88900Y304372D01*
D02*
G37*
G36*
X197104Y303102D02*
X195518Y302786D01*
X194174Y301888D01*
X193276Y300544D01*
X192960Y298958D01*
X193276Y297372D01*
X194174Y296028D01*
X195518Y295130D01*
X197104Y294814D01*
X198690Y295130D01*
X200034Y296028D01*
X200932Y297372D01*
X201248Y298958D01*
X200932Y300544D01*
X200034Y301888D01*
X198690Y302786D01*
X197104Y303102D01*
D02*
G37*
G36*
X567436Y294720D02*
X565850Y294404D01*
X564506Y293506D01*
X563608Y292162D01*
X563292Y290576D01*
X563608Y288990D01*
X564506Y287646D01*
X565850Y286748D01*
X567436Y286432D01*
X569022Y286748D01*
X570366Y287646D01*
X571264Y288990D01*
X571580Y290576D01*
X571264Y292162D01*
X570366Y293506D01*
X569022Y294404D01*
X567436Y294720D01*
D02*
G37*
G36*
X406654Y291164D02*
X405068Y290848D01*
X403724Y289950D01*
X402826Y288606D01*
X402510Y287020D01*
X402826Y285434D01*
X403724Y284090D01*
X405068Y283192D01*
X406654Y282876D01*
X408240Y283192D01*
X409584Y284090D01*
X410482Y285434D01*
X410798Y287020D01*
X410482Y288606D01*
X409584Y289950D01*
X408240Y290848D01*
X406654Y291164D01*
D02*
G37*
G36*
X75642Y287608D02*
X74056Y287292D01*
X72712Y286394D01*
X71814Y285050D01*
X71498Y283464D01*
X71814Y281878D01*
X72712Y280534D01*
X74056Y279636D01*
X75642Y279320D01*
X77228Y279636D01*
X78572Y280534D01*
X79470Y281878D01*
X79786Y283464D01*
X79470Y285050D01*
X78572Y286394D01*
X77228Y287292D01*
X75642Y287608D01*
D02*
G37*
G36*
X99314Y283544D02*
X97728Y283228D01*
X96384Y282330D01*
X95486Y280986D01*
X95170Y279400D01*
X95486Y277814D01*
X96384Y276470D01*
X97728Y275572D01*
X99314Y275256D01*
X100900Y275572D01*
X102244Y276470D01*
X103142Y277814D01*
X103458Y279400D01*
X103142Y280986D01*
X102244Y282330D01*
X100900Y283228D01*
X99314Y283544D01*
D02*
G37*
G36*
X559308Y272897D02*
Y269240D01*
X562965D01*
X562823Y269952D01*
X561701Y271632D01*
X560020Y272755D01*
X559308Y272897D01*
D02*
G37*
G36*
X556768D02*
X556056Y272755D01*
X554375Y271632D01*
X553253Y269952D01*
X553111Y269240D01*
X556768D01*
Y272897D01*
D02*
G37*
G36*
X562965Y266700D02*
X559308D01*
Y263043D01*
X560020Y263185D01*
X561701Y264307D01*
X562823Y265988D01*
X562965Y266700D01*
D02*
G37*
G36*
X556768D02*
X553111D01*
X553253Y265988D01*
X554375Y264307D01*
X556056Y263185D01*
X556768Y263043D01*
Y266700D01*
D02*
G37*
G36*
X75642Y265256D02*
X74056Y264940D01*
X72712Y264042D01*
X71814Y262698D01*
X71498Y261112D01*
X71814Y259526D01*
X72712Y258182D01*
X74056Y257284D01*
X75642Y256968D01*
X77228Y257284D01*
X78572Y258182D01*
X79470Y259526D01*
X79786Y261112D01*
X79470Y262698D01*
X78572Y264042D01*
X77228Y264940D01*
X75642Y265256D01*
D02*
G37*
G36*
X559054Y250778D02*
X557468Y250462D01*
X556124Y249564D01*
X555226Y248220D01*
X554910Y246634D01*
X555226Y245048D01*
X556124Y243704D01*
X557468Y242806D01*
X559054Y242490D01*
X560640Y242806D01*
X561984Y243704D01*
X562882Y245048D01*
X563198Y246634D01*
X562882Y248220D01*
X561984Y249564D01*
X560640Y250462D01*
X559054Y250778D01*
D02*
G37*
G36*
X417271Y265887D02*
X353365D01*
Y254203D01*
X352349D01*
Y247904D01*
X359918D01*
Y246634D01*
X361188D01*
Y239065D01*
X367487D01*
Y240081D01*
X417271D01*
Y252781D01*
Y265887D01*
D02*
G37*
G36*
X358648Y245364D02*
X352349D01*
Y239065D01*
X358648D01*
Y245364D01*
D02*
G37*
G36*
X345642Y240110D02*
X344056Y239794D01*
X342712Y238896D01*
X341814Y237552D01*
X341498Y235966D01*
X341814Y234380D01*
X342712Y233036D01*
X344056Y232138D01*
X345642Y231822D01*
X347228Y232138D01*
X348572Y233036D01*
X349470Y234380D01*
X349785Y235966D01*
X349470Y237552D01*
X348572Y238896D01*
X347228Y239794D01*
X345642Y240110D01*
D02*
G37*
G36*
X385318Y227939D02*
Y224282D01*
X388975D01*
X388833Y224994D01*
X387710Y226674D01*
X386030Y227797D01*
X385318Y227939D01*
D02*
G37*
G36*
X382778D02*
X382066Y227797D01*
X380386Y226674D01*
X379263Y224994D01*
X379121Y224282D01*
X382778D01*
Y227939D01*
D02*
G37*
G36*
X76062Y230204D02*
X74477Y229888D01*
X73132Y228990D01*
X72234Y227646D01*
X71919Y226060D01*
X72234Y224474D01*
X73132Y223130D01*
X74477Y222232D01*
X76062Y221916D01*
X77648Y222232D01*
X78992Y223130D01*
X79891Y224474D01*
X80206Y226060D01*
X79891Y227646D01*
X78992Y228990D01*
X77648Y229888D01*
X76062Y230204D01*
D02*
G37*
G36*
X388975Y221742D02*
X385318D01*
Y218085D01*
X386030Y218227D01*
X387710Y219349D01*
X388833Y221030D01*
X388975Y221742D01*
D02*
G37*
G36*
X382778D02*
X379121D01*
X379263Y221030D01*
X380386Y219349D01*
X382066Y218227D01*
X382778Y218085D01*
Y221742D01*
D02*
G37*
G36*
X103142Y225124D02*
X101557Y224808D01*
X100212Y223910D01*
X99314Y222566D01*
X98999Y220980D01*
X99314Y219394D01*
X100212Y218050D01*
X101557Y217152D01*
X103142Y216836D01*
X104728Y217152D01*
X106072Y218050D01*
X106970Y219394D01*
X107286Y220980D01*
X106970Y222566D01*
X106072Y223910D01*
X104728Y224808D01*
X103142Y225124D01*
D02*
G37*
G36*
X450088Y217250D02*
X448502Y216934D01*
X447158Y216036D01*
X446260Y214692D01*
X445944Y213106D01*
X446260Y211520D01*
X447158Y210176D01*
X448502Y209278D01*
X450088Y208962D01*
X451674Y209278D01*
X453018Y210176D01*
X453916Y211520D01*
X454232Y213106D01*
X453916Y214692D01*
X453018Y216036D01*
X451674Y216934D01*
X450088Y217250D01*
D02*
G37*
G36*
X532892Y215980D02*
X531306Y215664D01*
X529962Y214766D01*
X529064Y213422D01*
X528748Y211836D01*
X529064Y210250D01*
X529962Y208906D01*
X531306Y208008D01*
X532892Y207692D01*
X534478Y208008D01*
X535822Y208906D01*
X536720Y210250D01*
X537036Y211836D01*
X536720Y213422D01*
X535822Y214766D01*
X534478Y215664D01*
X532892Y215980D01*
D02*
G37*
G36*
X399796Y212932D02*
X398210Y212616D01*
X396866Y211718D01*
X395968Y210374D01*
X395652Y208788D01*
X395968Y207202D01*
X396866Y205858D01*
X398210Y204960D01*
X399796Y204644D01*
X401382Y204960D01*
X402726Y205858D01*
X403624Y207202D01*
X403940Y208788D01*
X403624Y210374D01*
X402726Y211718D01*
X401382Y212616D01*
X399796Y212932D01*
D02*
G37*
G36*
X576834Y203810D02*
X575248Y203494D01*
X573904Y202596D01*
X573006Y201252D01*
X572690Y199666D01*
X573006Y198080D01*
X573904Y196736D01*
X575248Y195838D01*
X576834Y195522D01*
X578420Y195838D01*
X579764Y196736D01*
X580662Y198080D01*
X580978Y199666D01*
X580662Y201252D01*
X579764Y202596D01*
X578420Y203494D01*
X576834Y203810D01*
D02*
G37*
G36*
X88646Y203280D02*
X87060Y202964D01*
X85716Y202066D01*
X84818Y200722D01*
X84502Y199136D01*
X84818Y197550D01*
X85716Y196206D01*
X87060Y195308D01*
X88646Y194992D01*
X90232Y195308D01*
X91576Y196206D01*
X92474Y197550D01*
X92790Y199136D01*
X92474Y200722D01*
X91576Y202066D01*
X90232Y202964D01*
X88646Y203280D01*
D02*
G37*
G36*
X477774Y202772D02*
X476188Y202456D01*
X474844Y201558D01*
X473946Y200214D01*
X473630Y198628D01*
X473946Y197042D01*
X474844Y195698D01*
X476188Y194800D01*
X477774Y194484D01*
X479360Y194800D01*
X480704Y195698D01*
X481602Y197042D01*
X481918Y198628D01*
X481602Y200214D01*
X480704Y201558D01*
X479360Y202456D01*
X477774Y202772D01*
D02*
G37*
G36*
X303022D02*
X301436Y202456D01*
X300092Y201558D01*
X299194Y200214D01*
X298878Y198628D01*
X299194Y197042D01*
X300092Y195698D01*
X301436Y194800D01*
X303022Y194484D01*
X304608Y194800D01*
X305952Y195698D01*
X306850Y197042D01*
X307166Y198628D01*
X306850Y200214D01*
X305952Y201558D01*
X304608Y202456D01*
X303022Y202772D01*
D02*
G37*
G36*
X210058Y199470D02*
X208472Y199154D01*
X207128Y198256D01*
X206230Y196912D01*
X205914Y195326D01*
X206230Y193740D01*
X207128Y192396D01*
X208472Y191498D01*
X210058Y191182D01*
X211644Y191498D01*
X212988Y192396D01*
X213886Y193740D01*
X214202Y195326D01*
X213886Y196912D01*
X212988Y198256D01*
X211644Y199154D01*
X210058Y199470D01*
D02*
G37*
G36*
X556386Y190601D02*
Y186944D01*
X560043D01*
X559901Y187656D01*
X558778Y189336D01*
X557098Y190459D01*
X556386Y190601D01*
D02*
G37*
G36*
X553846D02*
X553134Y190459D01*
X551454Y189336D01*
X550331Y187656D01*
X550189Y186944D01*
X553846D01*
Y190601D01*
D02*
G37*
G36*
X410210Y194644D02*
X408624Y194328D01*
X407280Y193430D01*
X406382Y192086D01*
X406066Y190500D01*
X406382Y188914D01*
X407280Y187570D01*
X408624Y186672D01*
X410210Y186356D01*
X411796Y186672D01*
X413140Y187570D01*
X414038Y188914D01*
X414354Y190500D01*
X414038Y192086D01*
X413140Y193430D01*
X411796Y194328D01*
X410210Y194644D01*
D02*
G37*
G36*
X464820Y190326D02*
X463234Y190010D01*
X461890Y189112D01*
X460992Y187768D01*
X460676Y186182D01*
X460992Y184596D01*
X461890Y183252D01*
X463234Y182354D01*
X464820Y182038D01*
X466406Y182354D01*
X467750Y183252D01*
X468648Y184596D01*
X468964Y186182D01*
X468648Y187768D01*
X467750Y189112D01*
X466406Y190010D01*
X464820Y190326D01*
D02*
G37*
G36*
X539750Y189818D02*
X538164Y189502D01*
X536820Y188604D01*
X535922Y187260D01*
X535606Y185674D01*
X535922Y184088D01*
X536820Y182744D01*
X538164Y181846D01*
X539750Y181530D01*
X541336Y181846D01*
X542680Y182744D01*
X543578Y184088D01*
X543894Y185674D01*
X543578Y187260D01*
X542680Y188604D01*
X541336Y189502D01*
X539750Y189818D01*
D02*
G37*
G36*
X560043Y184404D02*
X556386D01*
Y180747D01*
X557098Y180889D01*
X558778Y182012D01*
X559901Y183692D01*
X560043Y184404D01*
D02*
G37*
G36*
X553846D02*
X550189D01*
X550331Y183692D01*
X551454Y182012D01*
X553134Y180889D01*
X553846Y180747D01*
Y184404D01*
D02*
G37*
G36*
X512452Y181203D02*
Y177546D01*
X516109D01*
X515967Y178258D01*
X514845Y179939D01*
X513164Y181061D01*
X512452Y181203D01*
D02*
G37*
G36*
X509912D02*
X509200Y181061D01*
X507519Y179939D01*
X506397Y178258D01*
X506255Y177546D01*
X509912D01*
Y181203D01*
D02*
G37*
G36*
X379222Y184738D02*
X377636Y184422D01*
X376292Y183524D01*
X375394Y182180D01*
X375078Y180594D01*
X375394Y179008D01*
X376292Y177664D01*
X377636Y176766D01*
X379222Y176450D01*
X380808Y176766D01*
X382152Y177664D01*
X383050Y179008D01*
X383366Y180594D01*
X383050Y182180D01*
X382152Y183524D01*
X380808Y184422D01*
X379222Y184738D01*
D02*
G37*
G36*
X516109Y175006D02*
X512452D01*
Y171349D01*
X513164Y171491D01*
X514845Y172614D01*
X515967Y174294D01*
X516109Y175006D01*
D02*
G37*
G36*
X509912D02*
X506255D01*
X506397Y174294D01*
X507519Y172614D01*
X509200Y171491D01*
X509912Y171349D01*
Y175006D01*
D02*
G37*
G36*
X454660Y177880D02*
X453074Y177564D01*
X451730Y176666D01*
X450832Y175322D01*
X450516Y173736D01*
X450832Y172150D01*
X451730Y170806D01*
X453074Y169908D01*
X454660Y169592D01*
X456246Y169908D01*
X457590Y170806D01*
X458488Y172150D01*
X458804Y173736D01*
X458488Y175322D01*
X457590Y176666D01*
X456246Y177564D01*
X454660Y177880D01*
D02*
G37*
G36*
X309118Y172059D02*
Y168402D01*
X312775D01*
X312633Y169114D01*
X311511Y170795D01*
X309830Y171917D01*
X309118Y172059D01*
D02*
G37*
G36*
X306578D02*
X305866Y171917D01*
X304186Y170795D01*
X303063Y169114D01*
X302921Y168402D01*
X306578D01*
Y172059D01*
D02*
G37*
G36*
X145796Y167487D02*
Y163830D01*
X149453D01*
X149311Y164542D01*
X148188Y166222D01*
X146508Y167345D01*
X145796Y167487D01*
D02*
G37*
G36*
X143256D02*
X142544Y167345D01*
X140864Y166222D01*
X139741Y164542D01*
X139599Y163830D01*
X143256D01*
Y167487D01*
D02*
G37*
G36*
X281686Y170514D02*
X280100Y170198D01*
X278756Y169300D01*
X277858Y167956D01*
X277542Y166370D01*
X277858Y164784D01*
X278756Y163440D01*
X280100Y162542D01*
X281686Y162226D01*
X283272Y162542D01*
X284616Y163440D01*
X285514Y164784D01*
X285830Y166370D01*
X285514Y167956D01*
X284616Y169300D01*
X283272Y170198D01*
X281686Y170514D01*
D02*
G37*
G36*
X221742Y170260D02*
X220156Y169944D01*
X218812Y169046D01*
X217914Y167702D01*
X217598Y166116D01*
X217914Y164530D01*
X218812Y163186D01*
X220156Y162288D01*
X221742Y161972D01*
X223328Y162288D01*
X224672Y163186D01*
X225570Y164530D01*
X225886Y166116D01*
X225570Y167702D01*
X224672Y169046D01*
X223328Y169944D01*
X221742Y170260D01*
D02*
G37*
G36*
X173482Y169752D02*
X171896Y169436D01*
X170552Y168538D01*
X169654Y167194D01*
X169338Y165608D01*
X169654Y164022D01*
X170552Y162678D01*
X171896Y161780D01*
X173482Y161464D01*
X175068Y161780D01*
X176412Y162678D01*
X177310Y164022D01*
X177626Y165608D01*
X177310Y167194D01*
X176412Y168538D01*
X175068Y169436D01*
X173482Y169752D01*
D02*
G37*
G36*
X197104Y168482D02*
X195518Y168166D01*
X194174Y167268D01*
X193276Y165924D01*
X192960Y164338D01*
X193276Y162752D01*
X194174Y161408D01*
X195518Y160510D01*
X197104Y160194D01*
X198690Y160510D01*
X200034Y161408D01*
X200932Y162752D01*
X201248Y164338D01*
X200932Y165924D01*
X200034Y167268D01*
X198690Y168166D01*
X197104Y168482D01*
D02*
G37*
G36*
X149453Y161290D02*
X145796D01*
Y157633D01*
X146508Y157775D01*
X148188Y158897D01*
X149311Y160578D01*
X149453Y161290D01*
D02*
G37*
G36*
X143256D02*
X139599D01*
X139741Y160578D01*
X140864Y158897D01*
X142544Y157775D01*
X143256Y157633D01*
Y161290D01*
D02*
G37*
G36*
X420116Y163402D02*
X418530Y163086D01*
X417186Y162188D01*
X416288Y160844D01*
X415972Y159258D01*
X416288Y157672D01*
X417186Y156328D01*
X418530Y155430D01*
X420116Y155114D01*
X421702Y155430D01*
X423046Y156328D01*
X423944Y157672D01*
X424260Y159258D01*
X423944Y160844D01*
X423046Y162188D01*
X421702Y163086D01*
X420116Y163402D01*
D02*
G37*
G36*
X312775Y165862D02*
X302921D01*
X303063Y165150D01*
X304186Y163470D01*
X305866Y162347D01*
X307332Y162055D01*
X307482Y161116D01*
X307440Y160739D01*
X306188Y159902D01*
X305290Y158558D01*
X304974Y156972D01*
X305290Y155386D01*
X306188Y154042D01*
X307532Y153144D01*
X309118Y152828D01*
X310704Y153144D01*
X312048Y154042D01*
X312946Y155386D01*
X313262Y156972D01*
X312946Y158558D01*
X312048Y159902D01*
X310704Y160800D01*
X309634Y161013D01*
Y162308D01*
X309830Y162347D01*
X311511Y163470D01*
X312633Y165150D01*
X312775Y165862D01*
D02*
G37*
G36*
X93472Y160862D02*
X91886Y160546D01*
X90542Y159648D01*
X89644Y158304D01*
X89328Y156718D01*
X89644Y155132D01*
X90542Y153788D01*
X91886Y152890D01*
X93472Y152574D01*
X95058Y152890D01*
X96402Y153788D01*
X97300Y155132D01*
X97616Y156718D01*
X97300Y158304D01*
X96402Y159648D01*
X95058Y160546D01*
X93472Y160862D01*
D02*
G37*
G36*
X391922Y159084D02*
X390336Y158768D01*
X388992Y157870D01*
X388094Y156526D01*
X387778Y154940D01*
X388094Y153354D01*
X388992Y152010D01*
X390336Y151112D01*
X391922Y150796D01*
X393508Y151112D01*
X394852Y152010D01*
X395750Y153354D01*
X396066Y154940D01*
X395750Y156526D01*
X394852Y157870D01*
X393508Y158768D01*
X391922Y159084D01*
D02*
G37*
G36*
X337184Y148945D02*
Y145288D01*
X340841D01*
X340699Y146000D01*
X339576Y147681D01*
X337896Y148803D01*
X337184Y148945D01*
D02*
G37*
G36*
X334644D02*
X333932Y148803D01*
X332252Y147681D01*
X331129Y146000D01*
X330987Y145288D01*
X334644D01*
Y148945D01*
D02*
G37*
G36*
X144526Y150956D02*
X142940Y150640D01*
X141596Y149742D01*
X140698Y148398D01*
X140382Y146812D01*
X140698Y145226D01*
X141596Y143882D01*
X142940Y142984D01*
X144526Y142668D01*
X146112Y142984D01*
X147456Y143882D01*
X148354Y145226D01*
X148670Y146812D01*
X148354Y148398D01*
X147456Y149742D01*
X146112Y150640D01*
X144526Y150956D01*
D02*
G37*
G36*
X324612Y147400D02*
X323026Y147084D01*
X321682Y146186D01*
X320784Y144842D01*
X320468Y143256D01*
X320784Y141670D01*
X321682Y140326D01*
X323026Y139428D01*
X324612Y139112D01*
X326198Y139428D01*
X327542Y140326D01*
X328440Y141670D01*
X328756Y143256D01*
X328440Y144842D01*
X327542Y146186D01*
X326198Y147084D01*
X324612Y147400D01*
D02*
G37*
G36*
X340841Y142748D02*
X337184D01*
Y139091D01*
X337896Y139233D01*
X339576Y140356D01*
X340699Y142036D01*
X340841Y142748D01*
D02*
G37*
G36*
X334644D02*
X330987D01*
X331129Y142036D01*
X332252Y140356D01*
X333932Y139233D01*
X334644Y139091D01*
Y142748D01*
D02*
G37*
G36*
X70205Y135970D02*
X68619Y135654D01*
X67275Y134756D01*
X66377Y133412D01*
X66061Y131826D01*
X66377Y130240D01*
X67275Y128896D01*
X68619Y127998D01*
X70205Y127682D01*
X71791Y127998D01*
X73135Y128896D01*
X74033Y130240D01*
X74349Y131826D01*
X74033Y133412D01*
X73135Y134756D01*
X71791Y135654D01*
X70205Y135970D01*
D02*
G37*
G36*
X579882Y130657D02*
Y127000D01*
X583539D01*
X583397Y127712D01*
X582275Y129392D01*
X580594Y130515D01*
X579882Y130657D01*
D02*
G37*
G36*
X577342D02*
X576630Y130515D01*
X574949Y129392D01*
X573827Y127712D01*
X573685Y127000D01*
X577342D01*
Y130657D01*
D02*
G37*
G36*
X15494Y133430D02*
X13908Y133114D01*
X12564Y132216D01*
X11666Y130872D01*
X11350Y129286D01*
X11666Y127700D01*
X12564Y126356D01*
X13908Y125458D01*
X15494Y125142D01*
X17080Y125458D01*
X18424Y126356D01*
X19322Y127700D01*
X19638Y129286D01*
X19322Y130872D01*
X18424Y132216D01*
X17080Y133114D01*
X15494Y133430D01*
D02*
G37*
G36*
X583539Y124460D02*
X579882D01*
Y120803D01*
X580594Y120945D01*
X582275Y122067D01*
X583397Y123748D01*
X583539Y124460D01*
D02*
G37*
G36*
X577342D02*
X573685D01*
X573827Y123748D01*
X574949Y122067D01*
X576630Y120945D01*
X577342Y120803D01*
Y124460D01*
D02*
G37*
G36*
X322580Y108448D02*
X320251Y107985D01*
X318277Y106665D01*
X316957Y104691D01*
X316877Y104289D01*
X315583D01*
X315503Y104691D01*
X314183Y106665D01*
X312209Y107985D01*
X309880Y108448D01*
X307551Y107985D01*
X305577Y106665D01*
X304257Y104691D01*
X304177Y104289D01*
X302883D01*
X302803Y104691D01*
X301483Y106665D01*
X299509Y107985D01*
X297180Y108448D01*
X294851Y107985D01*
X292877Y106665D01*
X291557Y104691D01*
X291477Y104289D01*
X290183D01*
X290103Y104691D01*
X288783Y106665D01*
X286809Y107985D01*
X284480Y108448D01*
X282151Y107985D01*
X280177Y106665D01*
X278857Y104691D01*
X278394Y102362D01*
X278857Y100033D01*
X280177Y98059D01*
X282151Y96739D01*
X284480Y96276D01*
X286809Y96739D01*
X288783Y98059D01*
X290103Y100033D01*
X290183Y100435D01*
X291477D01*
X291557Y100033D01*
X292877Y98059D01*
X294851Y96739D01*
X297180Y96276D01*
X299509Y96739D01*
X301483Y98059D01*
X302803Y100033D01*
X302883Y100435D01*
X304177D01*
X304257Y100033D01*
X305577Y98059D01*
X307551Y96739D01*
X309880Y96276D01*
X312209Y96739D01*
X314183Y98059D01*
X315503Y100033D01*
X315583Y100435D01*
X316877D01*
X316957Y100033D01*
X318277Y98059D01*
X320251Y96739D01*
X322580Y96276D01*
X324909Y96739D01*
X326883Y98059D01*
X328203Y100033D01*
X328666Y102362D01*
X328203Y104691D01*
X326883Y106665D01*
X324909Y107985D01*
X322580Y108448D01*
D02*
G37*
G36*
X96692Y106252D02*
X95106Y105936D01*
X93762Y105038D01*
X92864Y103694D01*
X92548Y102108D01*
X92864Y100522D01*
X93762Y99178D01*
X95106Y98280D01*
X96692Y97964D01*
X98278Y98280D01*
X99622Y99178D01*
X100520Y100522D01*
X100836Y102108D01*
X100520Y103694D01*
X99622Y105038D01*
X98278Y105936D01*
X96692Y106252D01*
D02*
G37*
G36*
X362458Y87049D02*
Y83392D01*
X366115D01*
X365973Y84104D01*
X364851Y85784D01*
X363170Y86907D01*
X362458Y87049D01*
D02*
G37*
G36*
X359918D02*
X359206Y86907D01*
X357525Y85784D01*
X356403Y84104D01*
X356261Y83392D01*
X359918D01*
Y87049D01*
D02*
G37*
G36*
X366115Y80852D02*
X362458D01*
Y77195D01*
X363170Y77336D01*
X364851Y78459D01*
X365973Y80140D01*
X366115Y80852D01*
D02*
G37*
G36*
X359918D02*
X356261D01*
X356403Y80140D01*
X357525Y78459D01*
X359206Y77336D01*
X359918Y77195D01*
Y80852D01*
D02*
G37*
G36*
X505460Y82122D02*
X503874Y81806D01*
X502530Y80908D01*
X501632Y79564D01*
X501316Y77978D01*
X501632Y76392D01*
X502530Y75048D01*
X503874Y74150D01*
X505460Y73834D01*
X507046Y74150D01*
X508390Y75048D01*
X509288Y76392D01*
X509604Y77978D01*
X509288Y79564D01*
X508390Y80908D01*
X507046Y81806D01*
X505460Y82122D01*
D02*
G37*
G36*
X301244Y69676D02*
X299658Y69360D01*
X298314Y68462D01*
X297416Y67118D01*
X297100Y65532D01*
X297416Y63946D01*
X298314Y62602D01*
X299658Y61704D01*
X301244Y61388D01*
X302830Y61704D01*
X304174Y62602D01*
X305072Y63946D01*
X305388Y65532D01*
X305072Y67118D01*
X304174Y68462D01*
X302830Y69360D01*
X301244Y69676D01*
D02*
G37*
G36*
X87376Y53420D02*
X85790Y53104D01*
X84446Y52206D01*
X83548Y50862D01*
X83232Y49276D01*
X83548Y47690D01*
X84446Y46346D01*
X85790Y45448D01*
X87376Y45132D01*
X88962Y45448D01*
X90306Y46346D01*
X91204Y47690D01*
X91520Y49276D01*
X91204Y50862D01*
X90306Y52206D01*
X88962Y53104D01*
X87376Y53420D01*
D02*
G37*
G36*
X298584Y58046D02*
X280536D01*
Y39998D01*
X298584D01*
Y58046D01*
D02*
G37*
G36*
X314960Y58124D02*
X312604Y57814D01*
X310409Y56904D01*
X308524Y55458D01*
X307078Y53573D01*
X306168Y51378D01*
X305858Y49022D01*
X306168Y46666D01*
X307078Y44471D01*
X308524Y42586D01*
X310409Y41140D01*
X312604Y40230D01*
X314960Y39920D01*
X317316Y40230D01*
X319511Y41140D01*
X321396Y42586D01*
X322842Y44471D01*
X323752Y46666D01*
X324062Y49022D01*
X323752Y51378D01*
X322842Y53573D01*
X321396Y55458D01*
X319511Y56904D01*
X317316Y57814D01*
X314960Y58124D01*
D02*
G37*
G36*
X353164Y38640D02*
X351578Y38324D01*
X350234Y37426D01*
X349336Y36082D01*
X349020Y34496D01*
X349336Y32910D01*
X350234Y31566D01*
X351578Y30668D01*
X353164Y30352D01*
X354750Y30668D01*
X356094Y31566D01*
X356992Y32910D01*
X357308Y34496D01*
X356992Y36082D01*
X356094Y37426D01*
X354750Y38324D01*
X353164Y38640D01*
D02*
G37*
G36*
X496570Y23194D02*
X494984Y22878D01*
X493640Y21980D01*
X492742Y20636D01*
X492426Y19050D01*
X492742Y17464D01*
X493640Y16120D01*
X494984Y15222D01*
X496570Y14906D01*
X498156Y15222D01*
X499500Y16120D01*
X500398Y17464D01*
X500714Y19050D01*
X500398Y20636D01*
X499500Y21980D01*
X498156Y22878D01*
X496570Y23194D01*
D02*
G37*
G36*
X87370Y22838D02*
X85784Y22522D01*
X84440Y21624D01*
X83541Y20280D01*
X83226Y18694D01*
X83541Y17108D01*
X84440Y15764D01*
X85784Y14866D01*
X87370Y14550D01*
X88955Y14866D01*
X90300Y15764D01*
X91198Y17108D01*
X91513Y18694D01*
X91198Y20280D01*
X90300Y21624D01*
X88955Y22522D01*
X87370Y22838D01*
D02*
G37*
%LPD*%
D126*
X68039Y375049D02*
D03*
X95504Y374904D02*
D03*
X76708D02*
D03*
X86120D02*
D03*
D137*
X359918Y246634D02*
D03*
D140*
X361188Y82122D02*
D03*
X21066Y385318D02*
D03*
X558038Y267970D02*
D03*
X561086Y491744D02*
D03*
X578612Y125730D02*
D03*
X533400Y445262D02*
D03*
X384048Y223012D02*
D03*
X511182Y176276D02*
D03*
X388874Y439492D02*
D03*
X307848Y167132D02*
D03*
X555116Y185674D02*
D03*
X335914Y144018D02*
D03*
X144526Y162560D02*
D03*
M02*
