G04*
G04 #@! TF.GenerationSoftware,Altium Limited,Altium Designer,19.0.10 (269)*
G04*
G04 Layer_Color=16711935*
%FSLAX44Y44*%
%MOMM*%
G71*
G01*
G75*
%ADD118C,2.2352*%
%ADD119C,1.4032*%
%ADD120R,1.4032X1.4032*%
%ADD121C,1.7032*%
%ADD122R,1.7032X1.7032*%
%ADD123R,1.3106X1.3106*%
%ADD124C,1.0922*%
%ADD125C,3.8032*%
%ADD126C,0.7112*%
D118*
X325628Y565103D02*
D03*
X274828D02*
D03*
D119*
X301244Y432562D02*
D03*
X326644Y381762D02*
D03*
D120*
X275844D02*
D03*
D121*
X156464Y340868D02*
D03*
X227584D02*
D03*
X314960Y49022D02*
D03*
D122*
X131064Y340868D02*
D03*
X202184D02*
D03*
X289560Y49022D02*
D03*
D123*
X410718Y259334D02*
D03*
Y246634D02*
D03*
X385318D02*
D03*
X398018D02*
D03*
X385318Y259334D02*
D03*
X398018D02*
D03*
X372618D02*
D03*
X359918D02*
D03*
X372618Y246634D02*
D03*
X359918D02*
D03*
D124*
X284480Y102362D02*
D03*
X297180D02*
D03*
X309880D02*
D03*
X322580D02*
D03*
D125*
X23500Y23500D02*
D03*
X576500D02*
D03*
X23500Y576500D02*
D03*
X576500D02*
D03*
D126*
X413240Y360680D02*
D03*
X359410Y324866D02*
D03*
X345642Y235966D02*
D03*
X361188Y82122D02*
D03*
X76062Y226060D02*
D03*
X74930Y311912D02*
D03*
X75642Y283464D02*
D03*
Y261112D02*
D03*
X75046Y188722D02*
D03*
X103142Y220980D02*
D03*
X93472Y156718D02*
D03*
X102108Y351536D02*
D03*
X99314Y279400D02*
D03*
X74930Y340360D02*
D03*
X75438Y160676D02*
D03*
X70205Y131826D02*
D03*
X40386Y129540D02*
D03*
X15494Y129286D02*
D03*
X21066Y385318D02*
D03*
X26416Y375049D02*
D03*
X71983Y366522D02*
D03*
X558038Y267970D02*
D03*
X559054Y246634D02*
D03*
X16002Y450088D02*
D03*
X55626Y419354D02*
D03*
X496570Y19050D02*
D03*
M02*
