G04*
G04 #@! TF.GenerationSoftware,Altium Limited,Altium Designer,19.0.10 (269)*
G04*
G04 Layer_Color=16711935*
%FSLAX44Y44*%
%MOMM*%
G71*
G01*
G75*
%ADD15C,0.0508*%
D15*
X61000Y140000D02*
X61891Y140099D01*
X62737Y140394D01*
X63495Y140871D01*
X64129Y141504D01*
X64605Y142263D01*
X64901Y143109D01*
X65000Y144000D01*
X65000Y356000D02*
X65000Y144000D01*
X64901Y356890D02*
X65000Y356000D01*
X64605Y357736D02*
X64901Y356890D01*
X64129Y358495D02*
X64605Y357736D01*
X63495Y359129D02*
X64129Y358495D01*
X62737Y359605D02*
X63495Y359129D01*
X61891Y359901D02*
X62737Y359605D01*
X61000Y360000D02*
X61891Y359901D01*
X0Y360000D02*
X61000D01*
X0Y600000D02*
X0Y360000D01*
X0Y600000D02*
X57910Y599990D01*
X59522Y598514D01*
X61409Y597410D01*
X63486Y596729D01*
X65660Y596500D01*
X165660D01*
X167836Y596728D01*
X169914Y597411D01*
X171800Y598519D01*
X173410Y600000D01*
X386250Y599990D01*
X387862Y598514D01*
X389749Y597410D01*
X391826Y596729D01*
X394000Y596500D01*
X494000D01*
X496176Y596728D01*
X498254Y597411D01*
X500140Y598519D01*
X501750Y600000D01*
X600000Y600000D01*
X600000Y-0D01*
X0Y-0D02*
X600000Y-0D01*
X0Y-0D02*
Y140000D01*
X61000D01*
M02*
