M48
;Layer_Color=9474304
;FILE_FORMAT=4:4
METRIC,LZ
;TYPE=PLATED
T1F00S00C0.2032
T2F00S00C0.4572
T3F00S00C0.6350
T4F00S00C0.6502
T5F00S00C0.7000
T6F00S00C0.9000
T7F00S00C1.0160
T8F00S00C2.7000
%
T01
X00301244Y00065532
X00361188Y00082122
X00353164Y00034496
X00335914Y00144018
X00324612Y00143256
X00309118Y00156972
X00307848Y00167132
X00281686Y0016637
X00303022Y00198628
X00345642Y00235966
X00384048Y00223012
X00399796Y00208788
X0041021Y001905
X00379222Y00180594
X00391922Y0015494
X00420116Y00159258
X0045466Y00173736
X0046482Y00186182
X00477774Y00198628
X00450088Y00213106
X00532892Y00211836
X0053975Y00185674
X00555116
X00576834Y00199666
X00559054Y00246634
X00558038Y0026797
X00567436Y00290576
X00561594Y00325882
X0050419Y00327152
X00482092Y00316738
X00418084Y00308864
X00407162Y0030861
X00406654Y0028702
X0041324Y0036068
X0035052Y00343154
X0035941Y00324866
X00316992Y00332994
X00293408Y00331724
X00249428Y0032893
X00243586Y00350012
X00519938Y00357124
X00511182Y00176276
X0050546Y00077978
X0049657Y0001905
X00578612Y0012573
X00221742Y00166116
X00197104Y00164338
X00173482Y00165608
X00144526Y0016256
Y00146812
X00093472Y00156718
X00075438Y00160676
X00075046Y00188722
X00088646Y00199136
X00103142Y0022098
X00076062Y0022606
X00075642Y00261112
Y00283464
X00099314Y002794
X000889Y00300228
X0007493Y00311912
Y0034036
X00102108Y00351536
X0017399Y00339598
X00184658Y00346964
X00197104Y00298958
X00210058Y00195326
X00070205Y00131826
X00040386Y0012954
X00015494Y00129286
X00096692Y00102108
X00087376Y00049276
X0008737Y00018694
X00071983Y00366522
X00026416Y00375049
X00021066Y00385318
X00055626Y00419354
X00066294Y00473202
X00065532Y00511556
X0006096Y00557784
X00037592Y00545592
Y00484378
X00016002Y00450088
X00109554Y00451104
Y00460104
X00119554
Y00451104
Y00442104
X00109554
X00141119Y00439928
X00141986Y00450088
X0014351Y00463804
X00149478Y00491094
X00140716Y00520446
X00212344Y00540258
X00210312Y0047879
X00264384Y00468884
X00244856Y00385826
X0031623Y00366776
X00388874Y00439492
X0043307Y00397256
X005334Y00445262
X00557276Y00455422
X00561086Y00491744
X0053848Y00538226
X00493522Y00495046
X00367792Y00524002
T02
X00068039Y00375049
X00076708Y00374904
X0008612
X00095504
T03
X0028448Y00102362
X0029718
X0030988
X0032258
T04
X00359918Y00246634
Y00259334
X00372618
X00385318
Y00246634
X00398018
X00410718
Y00259334
X00398018
X00372618Y00246634
T05
X00275844Y00381762
X00326644
X00301244Y00432562
T06
X0028956Y00049022
X0031496
X00227584Y00340868
X00202184
X00156464
X00131064
T07
X00274828Y00565103
X00325628
T08
X005765Y000235
X000235
Y005765
X005765
M30
